<svg width="25" height="21" viewBox="0 0 25 21" fill="none" xmlns="http://www.w3.org/2000/svg">
<path d="M21.8493 11.0204L21.1352 10.8378L19.2826 6.02674C18.9565 5.18069 18.2221 4.49985 17.4106 4.29204L15.3665 3.76858L4.80507 1.06609C4.08589 0.881751 3.45142 1.09392 3.07786 1.56694C3.07701 1.56868 3.07532 1.56955 3.07447 1.57042C3.07362 1.57216 3.07193 1.57303 3.07108 1.57389C3.07023 1.57563 3.06854 1.5765 3.06684 1.57824C3.066 1.57998 3.0643 1.58085 3.06346 1.58172C3.06261 1.58346 3.06092 1.58433 3.06007 1.5852C3.05922 1.58694 3.05753 1.58781 3.05583 1.58955C3.05499 1.59129 3.05329 1.59215 3.0516 1.59389C3.05075 1.59563 3.04906 1.5965 3.04821 1.59737C3.04736 1.59911 3.04567 1.59998 3.04482 1.60085C3.04397 1.60259 3.04228 1.60346 3.04059 1.6052C3.03889 1.60694 3.03804 1.60781 3.03635 1.60955C3.0355 1.61128 3.03381 1.61215 3.03296 1.61302C3.03211 1.61476 3.03042 1.61563 3.02873 1.61737C3.02703 1.61911 3.02618 1.61998 3.02449 1.62172C3.02364 1.62346 3.02195 1.62433 3.0211 1.6252C3.02026 1.62694 3.01856 1.62781 3.01771 1.62867C3.01687 1.63041 3.01517 1.63128 3.01348 1.63302C3.01263 1.63476 3.01094 1.63563 3.00924 1.63737C3.0084 1.63911 3.0067 1.63998 3.00585 1.64085C3.00501 1.64259 3.00331 1.64346 3.00247 1.64433C3.00162 1.64607 2.99993 1.64693 2.99823 1.64867C2.99738 1.65041 2.99569 1.65128 2.99484 1.65215C2.994 1.65389 2.9923 1.65476 2.99145 1.65563C2.99061 1.65737 2.98891 1.65824 2.98722 1.65998C2.98637 1.66172 2.98468 1.66259 2.98298 1.66433C2.98214 1.66606 2.98044 1.66693 2.9796 1.6678C2.97875 1.66954 2.97705 1.67041 2.97621 1.67128C2.97536 1.67302 2.97367 1.67389 2.97197 1.67563C2.97112 1.67737 2.96943 1.67824 2.96774 1.67998C2.96689 1.68172 2.96519 1.68259 2.96435 1.68345C2.9635 1.68519 2.96181 1.68606 2.96011 1.6878C2.95926 1.68954 2.95757 1.69041 2.95588 1.69215C2.95503 1.69389 2.95334 1.69476 2.95249 1.69563C2.95164 1.69737 2.94995 1.69824 2.9491 1.69911C2.94825 1.70085 2.94656 1.70172 2.94486 1.70345C2.94402 1.70519 2.94232 1.70606 2.94063 1.7078C2.94063 1.70867 2.93893 1.70954 2.93724 1.71041C2.93639 1.71215 2.9347 1.71302 2.93385 1.71389C2.93301 1.71563 2.93131 1.7165 2.92962 1.71824C2.92877 1.71998 2.92708 1.72084 2.92623 1.72171C2.92538 1.72345 2.92369 1.72432 2.92284 1.72519C2.92199 1.72693 2.9203 1.7278 2.9186 1.72954C2.91776 1.73128 2.91606 1.73215 2.91437 1.73389C2.91352 1.73563 2.91183 1.7365 2.91098 1.73737C2.91013 1.7391 2.90844 1.73997 2.90759 1.74171C2.90675 1.74345 2.90505 1.74432 2.90336 1.74606C2.90251 1.7478 2.90082 1.74867 2.89997 1.74954C2.89912 1.75128 2.89743 1.75215 2.89658 1.75302C2.89573 1.75476 2.89404 1.75563 2.89235 1.75736C2.8915 1.7591 2.8898 1.75997 2.88811 1.76171C2.88726 1.76345 2.88557 1.76432 2.88472 1.76519C2.88387 1.76693 2.88218 1.7678 2.88133 1.76867C2.88049 1.77041 2.87879 1.77128 2.8771 1.77302C2.87625 1.77476 2.87456 1.77562 2.87286 1.77736C2.87202 1.7791 2.87032 1.77997 2.86947 1.78084C2.86863 1.78258 2.86693 1.78345 2.86524 1.78519C2.86439 1.78693 2.8627 1.7878 2.861 1.78954C2.86016 1.79128 2.85846 1.79215 2.85761 1.79302C2.85677 1.79388 2.85592 1.79475 2.85423 1.79649C2.85338 1.79823 2.85169 1.7991 2.84999 1.80084C2.84914 1.80258 2.84745 1.80345 2.84576 1.80519C2.84491 1.80693 2.84321 1.8078 2.84237 1.80867C2.84152 1.81041 2.83983 1.81128 2.83898 1.81215C2.83813 1.81388 2.83644 1.81475 2.83474 1.81649C2.8339 1.81823 2.8322 1.8191 2.83135 1.81997C2.83051 1.82171 2.82881 1.82258 2.82797 1.82345C2.82712 1.82519 2.82543 1.82606 2.82373 1.8278C2.82288 1.82954 2.82119 1.83041 2.8195 1.83214C2.81865 1.83388 2.81695 1.83475 2.81611 1.83562C2.81526 1.83736 2.81357 1.83823 2.81272 1.8391C2.81187 1.84084 2.81018 1.84171 2.80848 1.84345C2.80764 1.84519 2.80594 1.84606 2.80425 1.8478C2.8034 1.84953 2.80171 1.8504 2.80086 1.85127C2.80001 1.85301 2.79832 1.85388 2.79662 1.85562C2.79493 1.85736 2.79408 1.85823 2.79239 1.85997C2.79154 1.86171 2.78985 1.86258 2.789 1.86345C2.78815 1.86519 2.78646 1.86606 2.78561 1.86693C2.78477 1.86866 2.78307 1.86953 2.78138 1.87127C2.78053 1.87301 2.77884 1.87388 2.77714 1.87562C2.77629 1.87736 2.7746 1.87823 2.77375 1.8791C2.77291 1.88084 2.77121 1.88171 2.77036 1.88258C2.76952 1.88432 2.76782 1.88519 2.76613 1.88692C2.76528 1.88866 2.76359 1.88953 2.76274 1.8904C2.76189 1.89214 2.7602 1.89301 2.75935 1.89388C2.75851 1.89562 2.75681 1.89649 2.75512 1.89823C2.75427 1.89997 2.75258 1.90084 2.75088 1.90258C2.75003 1.90431 2.74834 1.90518 2.74749 1.90605C2.74665 1.90779 2.74495 1.90866 2.74411 1.90953C2.74326 1.91127 2.74156 1.91214 2.73987 1.91388C2.73902 1.91562 2.73733 1.91649 2.73648 1.91736C2.73563 1.9191 2.73394 1.91997 2.73309 1.92084C2.73225 1.92258 2.73055 1.92344 2.72886 1.92518C2.72801 1.92692 2.72632 1.92779 2.72462 1.92953C2.72378 1.93127 2.72208 1.93214 2.72123 1.93301C2.72039 1.93475 2.71869 1.93562 2.71785 1.93649C2.717 1.93823 2.7153 1.9391 2.71361 1.94084C2.71276 1.94257 2.71107 1.94344 2.70937 1.94518C2.70853 1.94692 2.70683 1.94779 2.70599 1.94866C2.70514 1.9504 2.70344 1.95127 2.70175 1.95301C2.7009 1.95475 2.69921 1.95562 2.69752 1.95736C2.69667 1.9591 2.69497 1.95996 2.69413 1.96083C2.69328 1.96257 2.69159 1.96344 2.69074 1.96431C2.68989 1.96605 2.6882 1.96692 2.6865 1.96866C2.68566 1.9704 2.68396 1.97127 2.68227 1.97301C2.68142 1.97475 2.67973 1.97562 2.67888 1.97649C2.67803 1.97822 2.67634 1.97909 2.67549 1.97996C2.67464 1.9817 2.67295 1.98257 2.67126 1.98431C2.67041 1.98605 2.66871 1.98692 2.66787 1.98779C2.66702 1.98953 2.66533 1.9904 2.66448 1.99127C2.66363 1.99301 2.66194 1.99388 2.66024 1.99562C2.6594 1.99735 2.6577 1.99822 2.65601 1.99996C2.65516 2.0017 2.65347 2.00257 2.65262 2.00344C2.65177 2.00518 2.65008 2.00605 2.64923 2.00692C2.64838 2.00866 2.64669 2.00953 2.645 2.01127C2.64415 2.01301 2.64245 2.01388 2.64076 2.01561C2.63991 2.01735 2.63822 2.01822 2.63737 2.01909C2.63653 2.02083 2.63483 2.0217 2.63314 2.02344C2.63144 2.02518 2.6306 2.02605 2.6289 2.02779C2.62805 2.02953 2.62636 2.0304 2.62551 2.03127C2.62467 2.033 2.62297 2.03387 2.62212 2.03474C2.62128 2.03648 2.61958 2.03735 2.61789 2.03909C2.61704 2.04083 2.61535 2.0417 2.61365 2.04344C2.61281 2.04518 2.61111 2.04605 2.61027 2.04692C2.60942 2.04866 2.60772 2.04953 2.60603 2.05127C2.60518 2.053 2.60349 2.05387 2.60179 2.05561C2.60095 2.05735 2.59925 2.05822 2.59841 2.05909C2.59756 2.06083 2.59586 2.0617 2.59502 2.06257C2.59417 2.06431 2.59248 2.06518 2.59078 2.06692C2.58909 2.06866 2.58824 2.06953 2.58655 2.07126C2.5857 2.073 2.58401 2.07387 2.58316 2.07474C2.58231 2.07648 2.58062 2.07735 2.57977 2.07822C2.57892 2.07996 2.57723 2.08083 2.57553 2.08257C2.57469 2.08431 2.57299 2.08518 2.57215 2.08605C2.5713 2.08779 2.56961 2.08865 2.56876 2.08952C2.56791 2.09126 2.56622 2.09213 2.56452 2.09387C2.56368 2.09561 2.56198 2.09648 2.56029 2.09822C2.55944 2.09996 2.55775 2.10083 2.5569 2.1017C2.55605 2.10344 2.55436 2.10431 2.55351 2.10518C2.55266 2.10691 2.55097 2.10778 2.54928 2.10952C2.54843 2.11126 2.54673 2.11213 2.54504 2.11387C2.54419 2.11561 2.5425 2.11648 2.54165 2.11735C2.5408 2.11909 2.53911 2.11996 2.53742 2.1217C2.53657 2.12344 2.53487 2.12431 2.53318 2.12604C2.53233 2.12778 2.53064 2.12865 2.52979 2.12952C2.52894 2.13126 2.52725 2.13213 2.5264 2.133C2.52556 2.13474 2.52386 2.13561 2.52217 2.13735C2.52132 2.13909 2.51963 2.13996 2.51793 2.1417C2.51709 2.14344 2.51539 2.1443 2.51454 2.14517C2.5137 2.14691 2.512 2.14778 2.51116 2.14865C2.51031 2.15039 2.50861 2.15126 2.50692 2.153C2.50607 2.15474 2.50438 2.15561 2.50353 2.15648C2.50269 2.15822 2.50099 2.15909 2.50014 2.15996C2.4993 2.1617 2.4976 2.16256 2.49591 2.1643C2.49506 2.16604 2.49337 2.16691 2.49167 2.16865C2.49083 2.17039 2.48913 2.17126 2.48828 2.17213C2.48744 2.17387 2.48574 2.17474 2.4849 2.17561C2.48405 2.17735 2.48236 2.17822 2.48066 2.17996C2.47981 2.18169 2.47812 2.18256 2.47643 2.1843C2.47558 2.18604 2.47388 2.18691 2.47304 2.18778C2.47219 2.18952 2.4705 2.19039 2.4688 2.19213C2.46795 2.19387 2.46626 2.19474 2.46457 2.19648C2.46372 2.19822 2.46203 2.19908 2.46118 2.19995C2.46033 2.20169 2.45864 2.20256 2.45779 2.20343C2.45694 2.20517 2.45525 2.20604 2.45355 2.20778C2.45271 2.20952 2.45101 2.21039 2.44932 2.21213C2.44847 2.21387 2.44678 2.21474 2.44593 2.21561C2.44508 2.21734 2.44339 2.21821 2.4417 2.21995C2.44085 2.22169 2.43915 2.22256 2.43746 2.2243C2.43661 2.22604 2.43492 2.22691 2.43407 2.22778C2.43322 2.22952 2.43153 2.23039 2.43068 2.23126C2.42984 2.233 2.42814 2.23387 2.42645 2.2356C2.42475 2.23734 2.42391 2.23821 2.42221 2.23995C2.42137 2.24169 2.41967 2.24256 2.41882 2.24343C2.41798 2.24517 2.41628 2.24604 2.41544 2.24691C2.41459 2.24865 2.41289 2.24952 2.4112 2.25126C2.41035 2.253 2.40866 2.25386 2.40781 2.25473C2.40696 2.25647 2.40527 2.25734 2.40442 2.25821C2.40358 2.25995 2.40188 2.26082 2.40019 2.26256C2.39934 2.2643 2.39765 2.26517 2.39595 2.26691C2.39511 2.26865 2.39341 2.26952 2.39256 2.27039C2.39172 2.27212 2.39002 2.27299 2.38918 2.27386C2.38833 2.2756 2.38663 2.27647 2.38494 2.27821C2.38409 2.27995 2.3824 2.28082 2.3807 2.28256C2.37986 2.2843 2.37816 2.28517 2.37732 2.28604C2.37647 2.28778 2.37478 2.28865 2.37308 2.29039C2.37223 2.29212 2.37054 2.29299 2.36885 2.29473C2.368 2.29647 2.3663 2.29734 2.36546 2.29821C2.36461 2.29995 2.36292 2.30082 2.36207 2.30169C2.36122 2.30343 2.35953 2.3043 2.35783 2.30604C2.35699 2.30778 2.35529 2.30865 2.3536 2.31038C2.35275 2.31212 2.35106 2.31299 2.35021 2.31386C2.34936 2.3156 2.34767 2.31647 2.34682 2.31734C2.34597 2.31908 2.34428 2.31995 2.34259 2.32169C2.34174 2.32343 2.34004 2.3243 2.3392 2.32517C2.33835 2.32691 2.33666 2.32777 2.33581 2.32864C2.33496 2.33038 2.33327 2.33125 2.33157 2.33299C2.33073 2.33473 2.32903 2.3356 2.32734 2.33734C2.32649 2.33908 2.3248 2.33995 2.32395 2.34082C2.3231 2.34256 2.32141 2.34343 2.32056 2.3443C2.31971 2.34603 2.31802 2.3469 2.31633 2.34864C2.31548 2.35038 2.31378 2.35125 2.31209 2.35299C2.31124 2.35473 2.30955 2.3556 2.3087 2.35647C2.30786 2.35821 2.30616 2.35908 2.30447 2.36082C2.30362 2.36256 2.30193 2.36343 2.30023 2.36516C2.29938 2.3669 2.29769 2.36777 2.29684 2.36864C2.296 2.37038 2.2943 2.37125 2.29345 2.37212C2.29261 2.37386 2.29091 2.37473 2.28922 2.37647C2.28837 2.37821 2.28668 2.37908 2.28498 2.38082C2.28414 2.38255 2.28244 2.38342 2.2816 2.38429C2.28075 2.38603 2.27905 2.3869 2.27736 2.38864C2.27651 2.39038 2.27482 2.39125 2.27312 2.39299C2.27228 2.39473 2.27058 2.3956 2.26974 2.39647C2.26889 2.39821 2.2672 2.39908 2.26635 2.39995C2.2655 2.40168 2.26381 2.40255 2.26211 2.40429C2.26127 2.40603 2.25957 2.4069 2.25788 2.40864C2.25703 2.41038 2.25534 2.41125 2.25449 2.41212C2.25364 2.41386 2.25195 2.41473 2.2511 2.4156C2.25025 2.41734 2.24856 2.41821 2.24687 2.41994C2.24602 2.42168 2.24432 2.42255 2.24348 2.42342C2.24263 2.42516 2.24094 2.42603 2.24009 2.4269C2.23924 2.42864 2.23755 2.42951 2.23585 2.43125C2.23501 2.43299 2.23331 2.43386 2.23162 2.4356C2.23077 2.43734 2.22908 2.4382 2.22823 2.43907C2.22738 2.44081 2.22569 2.44168 2.22484 2.44255C2.22399 2.44429 2.2223 2.44516 2.22061 2.4469C2.21976 2.44864 2.21806 2.44951 2.21637 2.45125C2.21552 2.45299 2.21383 2.45386 2.21298 2.45473C2.21213 2.45646 2.21044 2.45733 2.20875 2.45907C2.20705 2.46081 2.20621 2.46168 2.20451 2.46342C2.20366 2.46516 2.20197 2.46603 2.20112 2.4669C2.20028 2.46864 2.19858 2.46951 2.19773 2.47038C2.19689 2.47212 2.19519 2.47299 2.1935 2.47472C2.1918 2.47646 2.19096 2.47733 2.18926 2.47907C2.18842 2.48081 2.18672 2.48168 2.18587 2.48255C2.18503 2.48429 2.18333 2.48516 2.18249 2.48603C2.18164 2.48777 2.17995 2.48864 2.17825 2.49038C2.1774 2.49212 2.17571 2.49298 2.17486 2.49385C2.17402 2.49559 2.17232 2.49646 2.17147 2.49733C2.17063 2.49907 2.16893 2.49994 2.16724 2.50168C2.16554 2.50342 2.1647 2.50429 2.163 2.50603C2.16216 2.50777 2.16046 2.50864 2.15962 2.50951C2.15877 2.51124 2.15707 2.51211 2.15623 2.51298C2.15538 2.51472 2.15369 2.51559 2.15199 2.51733C2.1503 2.51907 2.14945 2.51994 2.14776 2.52168C2.14691 2.52342 2.14521 2.52429 2.14437 2.52516C2.14352 2.5269 2.14183 2.52777 2.14013 2.5295C2.13929 2.53124 2.13759 2.53211 2.1359 2.53385C2.13505 2.53559 2.13336 2.53646 2.13251 2.53733C2.13166 2.53907 2.12997 2.53994 2.12912 2.54081C2.12827 2.54255 2.12658 2.54342 2.12488 2.54516C2.12404 2.5469 2.12234 2.54776 2.12065 2.5495C2.1198 2.55124 2.11811 2.55211 2.11726 2.55298C2.11641 2.55472 2.11472 2.55559 2.11303 2.55733C2.11218 2.55907 2.11048 2.55994 2.10879 2.56168C2.10794 2.56342 2.10625 2.56429 2.1054 2.56516C2.10455 2.56689 2.10286 2.56776 2.10201 2.56863C2.10117 2.57037 2.09947 2.57124 2.09778 2.57298C2.09693 2.57472 2.09524 2.57559 2.09354 2.57733C2.0927 2.57907 2.091 2.57994 2.09015 2.58081C2.08931 2.58255 2.08761 2.58342 2.08677 2.58429C2.08592 2.58602 2.08422 2.58689 2.08253 2.58863C2.08168 2.59037 2.07999 2.59124 2.07914 2.59211C2.07829 2.59385 2.0766 2.59472 2.07575 2.59559C2.07491 2.59733 2.07321 2.5982 2.07152 2.59994C2.07067 2.60168 2.06898 2.60255 2.06728 2.60428C2.06644 2.60602 2.06474 2.60689 2.06389 2.60776C2.06305 2.6095 2.06135 2.61037 2.06051 2.61124C2.05966 2.61298 2.05796 2.61385 2.05627 2.61559C2.05542 2.61733 2.05373 2.6182 2.05204 2.61994C2.05119 2.62167 2.04949 2.62254 2.04865 2.62341C2.0478 2.62515 2.04611 2.62602 2.04441 2.62776C2.04272 2.6295 2.04187 2.63037 2.04018 2.63211C2.03933 2.63385 2.03763 2.63472 2.03679 2.63559C2.03594 2.63733 2.03425 2.6382 2.0334 2.63907C2.03255 2.6408 2.03086 2.64167 2.02916 2.64341C2.02832 2.64515 2.02662 2.64602 2.02493 2.64776C2.02408 2.6495 2.02239 2.65037 2.02154 2.65124C2.02069 2.65298 2.019 2.65385 2.01815 2.65472C2.0173 2.65646 2.01561 2.65733 2.01392 2.65906C2.01307 2.6608 2.01138 2.66167 2.01053 2.66254C2.00968 2.66428 2.00799 2.66515 2.00714 2.66602C2.00629 2.66776 2.0046 2.66863 2.0029 2.67037C2.00121 2.67211 2.00036 2.67298 1.99867 2.67472C1.99782 2.67646 1.99613 2.67732 1.99528 2.67819C1.99443 2.67993 1.99274 2.6808 1.99189 2.68167C1.99105 2.68341 1.98935 2.68428 1.98766 2.68602C1.98596 2.68776 1.98512 2.68863 1.98342 2.69037C1.98257 2.69211 1.98088 2.69298 1.98003 2.69385C1.97919 2.69558 1.97749 2.69645 1.9758 2.69819C1.97495 2.69993 1.97326 2.7008 1.97156 2.70254C1.97834 2.69558 1.97749 2.69645 1.9758 2.69819C1.97495 2.69993 1.97326 2.7008 1.97241 2.70167C1.97156 2.70341 1.96987 2.70428 1.96817 2.70602C1.96648 2.70776 1.96563 2.70863 1.96394 2.71037C1.96309 2.71211 1.9614 2.71298 1.96055 2.71384C1.9597 2.71558 1.95801 2.71645 1.95631 2.71819C1.95547 2.71993 1.95377 2.7208 1.95208 2.72254C1.95123 2.72428 1.94954 2.72515 1.94869 2.72602C1.94784 2.72776 1.94615 2.72863 1.9453 2.7295C1.94446 2.73124 1.94276 2.7321 1.94107 2.73384C1.94022 2.73558 1.93853 2.73645 1.93683 2.73819C1.93598 2.73993 1.93429 2.7408 1.93344 2.74167C1.9326 2.74341 1.9309 2.74428 1.93005 2.74515C1.92921 2.74689 1.92751 2.74776 1.92582 2.7495C1.92582 2.7495 1.92413 2.75123 1.92328 2.7521C1.92243 2.75384 1.92074 2.75471 1.91989 2.75558C1.91904 2.75732 1.91735 2.75819 1.91565 2.75993C1.91481 2.76167 1.91311 2.76254 1.91142 2.76428C1.91057 2.76602 1.90888 2.76689 1.90803 2.76776C1.90718 2.76949 1.90549 2.77036 1.90464 2.77123C1.9038 2.77297 1.9021 2.77384 1.90041 2.77558C1.89956 2.77732 1.89787 2.77819 1.89617 2.77993C1.89532 2.78167 1.89363 2.78254 1.89278 2.78341C1.89194 2.78515 1.89024 2.78602 1.88855 2.78775C1.88685 2.78949 1.88601 2.79036 1.88431 2.7921C1.88346 2.79384 1.88177 2.79471 1.88092 2.79558C1.88008 2.79732 1.87838 2.79819 1.87754 2.79906C1.87669 2.8008 1.87499 2.80167 1.8733 2.80341C1.87245 2.80515 1.87076 2.80601 1.86906 2.80775C1.86822 2.80949 1.86652 2.81036 1.86568 2.81123C1.86483 2.81297 1.86313 2.81384 1.86229 2.81471C1.86144 2.81645 1.85975 2.81732 1.85805 2.81906C1.85721 2.8208 1.85551 2.82167 1.85466 2.82254C1.85382 2.82427 1.85212 2.82514 1.85128 2.82601C1.85043 2.82775 1.84873 2.82862 1.84704 2.83036C1.84535 2.8321 1.8445 2.83297 1.8428 2.83471C1.8428 2.83558 1.84111 2.83645 1.83942 2.83732C1.83857 2.83906 1.83688 2.83993 1.83603 2.8408C1.83518 2.84253 1.83349 2.8434 1.83179 2.84514C1.83095 2.84688 1.82925 2.84775 1.8284 2.84862C1.82756 2.85036 1.82586 2.85123 1.82502 2.8521C1.82417 2.85384 1.82247 2.85471 1.82078 2.85645C1.81993 2.85819 1.81824 2.85906 1.81655 2.86079C1.8157 2.86253 1.814 2.8634 1.81316 2.86427C1.81231 2.86601 1.81062 2.86688 1.80977 2.86775C1.80892 2.86949 1.80723 2.87036 1.80553 2.8721C1.80469 2.87384 1.80299 2.87471 1.8013 2.87645C1.80045 2.87819 1.79876 2.87905 1.79791 2.87992C1.79706 2.88166 1.79537 2.88253 1.79367 2.88427C1.79283 2.88601 1.79113 2.88688 1.78944 2.88862C1.78859 2.89036 1.7869 2.89123 1.78605 2.8921C1.7852 2.89384 1.78351 2.89471 1.78266 2.89558C1.78181 2.89731 1.78012 2.89818 1.77843 2.89992C1.77758 2.90166 1.77589 2.90253 1.77419 2.90427C1.77334 2.90601 1.77165 2.90688 1.7708 2.90775C1.76996 2.90949 1.76826 2.91036 1.76741 2.91123C1.76657 2.91297 1.76487 2.91384 1.76318 2.91558C1.76233 2.91731 1.76064 2.91818 1.75979 2.91905C1.75894 2.92079 1.75725 2.92166 1.7564 2.92253C1.75555 2.92427 1.75386 2.92514 1.75217 2.92688C1.75132 2.92862 1.74963 2.92949 1.74793 2.93123C1.74708 2.93297 1.74539 2.93384 1.74454 2.9347C1.7437 2.93644 1.742 2.93731 1.74115 2.93818C1.74031 2.93992 1.73861 2.94079 1.73692 2.94253C1.73607 2.94427 1.73438 2.94514 1.73268 2.94688C1.73184 2.94862 1.73014 2.94949 1.7293 2.95036C1.72845 2.9521 1.72675 2.95296 1.72506 2.9547C1.72506 2.95557 1.72337 2.95644 1.72252 2.95818C1.72167 2.95992 1.71998 2.96079 1.71913 2.96166C1.71828 2.9634 1.71659 2.96427 1.71574 2.96514C1.71489 2.96688 1.7132 2.96775 1.71151 2.96949C1.71066 2.97122 1.70897 2.97209 1.70727 2.97383C1.70642 2.97557 1.70473 2.97644 1.70388 2.97731C1.70304 2.97905 1.70134 2.97992 1.70049 2.98079C1.69965 2.98253 1.69795 2.9834 1.69626 2.98514C1.69541 2.98688 1.69372 2.98775 1.69287 2.98862C1.69202 2.99035 1.69033 2.99122 1.68948 2.99209C1.68864 2.99383 1.68694 2.9947 1.68525 2.99644C1.68355 2.99818 1.68271 2.99905 1.68101 3.00079C1.68016 3.00253 1.67847 3.0034 1.67762 3.00427C1.67678 3.00601 1.67508 3.00688 1.67423 3.00774C1.67339 3.00948 1.67169 3.01035 1.67 3.01209C1.66915 3.01383 1.66746 3.0147 1.66661 3.01557C1.66576 3.01731 1.66407 3.01818 1.66322 3.01905C1.66238 3.02079 1.66068 3.02166 1.65899 3.0234C1.65729 3.02514 1.65645 3.026 1.65475 3.02774C1.6539 3.02948 1.65221 3.03035 1.65136 3.03122C1.65052 3.03296 1.64882 3.03383 1.64797 3.0347C1.64713 3.03644 1.64543 3.03731 1.64374 3.03905C1.64205 3.04166 1.64035 3.04253 1.63866 3.0434C1.63781 3.04513 1.63612 3.046 1.63527 3.04687C1.63442 3.04861 1.63273 3.04948 1.63103 3.05122C1.63019 3.05296 1.62849 3.05383 1.6268 3.05557C1.62595 3.05731 1.62426 3.05818 1.62341 3.05905C1.62256 3.06079 1.62087 3.06166 1.62002 3.06253C1.61917 3.06426 1.61748 3.06513 1.61579 3.06687C1.61494 3.06861 1.61324 3.06948 1.61155 3.07122C1.6107 3.07296 1.60901 3.07383 1.60816 3.0747C1.60731 3.07644 1.60562 3.07731 1.60477 3.07818C1.60393 3.07992 1.60223 3.08079 1.60054 3.08252C1.59969 3.08426 1.598 3.08513 1.59715 3.086C1.5963 3.08774 1.59461 3.08861 1.59376 3.08948C1.59291 3.09122 1.59122 3.09209 1.58953 3.09383C1.58868 3.09557 1.58698 3.09644 1.58529 3.09818C1.58529 3.09991 1.5836 3.10078 1.58275 3.10165C1.5819 3.10339 1.58021 3.10426 1.57936 3.10513C1.57851 3.10687 1.57682 3.10774 1.57513 3.10948C1.57428 3.11122 1.57258 3.11209 1.57089 3.11383C1.57004 3.11557 1.56835 3.11644 1.5675 3.11731C1.56665 3.11904 1.56496 3.11991 1.56327 3.12165C1.33709 3.40599 1.2041 3.78423 1.2041 4.22943V11.1378C1.2041 12.3186 2.13674 13.5151 3.28709 13.809L3.58272 13.8847C3.58272 15.2394 4.65259 16.6106 5.9715 16.948C6.79657 17.1593 7.52337 16.9158 7.95284 16.3732C7.95369 16.3715 7.95538 16.3706 7.95623 16.3698C7.95708 16.368 7.95877 16.3672 7.95962 16.3663C7.96046 16.3646 7.96216 16.3637 7.96301 16.3628C7.96385 16.3611 7.96555 16.3602 7.96639 16.3593C7.96724 16.3576 7.96894 16.3567 7.97063 16.355C7.97148 16.3532 7.97317 16.3524 7.97402 16.3515C7.97486 16.3498 7.97656 16.3489 7.97825 16.3472C7.97995 16.3454 7.98079 16.3446 7.98164 16.3437C7.98249 16.3419 7.98418 16.3411 7.98503 16.3402C7.98588 16.3385 7.98757 16.3376 7.98842 16.3367C7.98926 16.335 7.99096 16.3341 7.99181 16.3332C7.99265 16.3315 7.99435 16.3306 7.99604 16.3289C7.99689 16.3272 7.99858 16.3263 7.99943 16.3254C8.00028 16.3237 8.00197 16.3228 8.00367 16.3211C8.00536 16.3193 8.00621 16.3185 8.00705 16.3176C8.0079 16.3159 8.0096 16.315 8.01044 16.3141C8.01129 16.3132 8.01298 16.3115 8.01383 16.3106C8.01468 16.3089 8.01637 16.308 8.01722 16.3072C8.01807 16.3054 8.01976 16.3046 8.02145 16.3028C8.0223 16.3011 8.024 16.3002 8.02484 16.2993C8.02569 16.2976 8.02738 16.2967 8.02908 16.295C8.03077 16.2933 8.03162 16.2924 8.03247 16.2915C8.03331 16.2898 8.03501 16.2889 8.0367 16.2872C8.03755 16.2854 8.03924 16.2846 8.04009 16.2837C8.04094 16.2819 8.04263 16.2811 8.04433 16.2793C8.04602 16.2776 8.04687 16.2767 8.04771 16.2759C8.04856 16.2741 8.05026 16.2733 8.0511 16.2724C8.05195 16.2706 8.05364 16.2698 8.05449 16.2689C8.05534 16.2672 8.05703 16.2663 8.05788 16.2654C8.05873 16.2637 8.06042 16.2628 8.06211 16.2611C8.06296 16.2593 8.06466 16.2585 8.0655 16.2576C8.06635 16.2559 8.06804 16.255 8.06974 16.2533C8.07143 16.2515 8.07228 16.2506 8.07313 16.2498C8.07397 16.248 8.07567 16.2472 8.07652 16.2463C8.07736 16.2454 8.07906 16.2437 8.0799 16.2428C8.08075 16.2411 8.08244 16.2402 8.08329 16.2393C8.08414 16.2376 8.08583 16.2367 8.08753 16.235C8.08837 16.2333 8.09007 16.2324 8.09092 16.2315C8.09176 16.2298 8.09346 16.2289 8.09515 16.2272C8.09685 16.2254 8.09769 16.2246 8.09854 16.2237C8.09939 16.2219 8.10108 16.2211 8.10193 16.2202C8.10278 16.2185 8.10447 16.2176 8.10532 16.2167C8.10616 16.215 8.10786 16.2141 8.1087 16.2133C8.10955 16.2115 8.11125 16.2106 8.11209 16.2098C8.11294 16.208 8.11463 16.2072 8.11548 16.2063C8.11633 16.2046 8.11802 16.2037 8.11887 16.2028C8.11972 16.2011 8.12141 16.2002 8.12226 16.1993C8.12311 16.1976 8.1248 16.1967 8.12649 16.195C8.12734 16.1933 8.12903 16.1924 8.12988 16.1915C8.13073 16.1898 8.13242 16.1889 8.13412 16.1872C8.13581 16.1854 8.13666 16.1846 8.13751 16.1837C8.13835 16.182 8.14005 16.1811 8.14089 16.1802C8.14174 16.1793 8.14344 16.1776 8.14428 16.1767C8.14513 16.175 8.14682 16.1741 8.14767 16.1733C8.14852 16.1715 8.15021 16.1706 8.15191 16.1689C8.15275 16.1672 8.15445 16.1663 8.15529 16.1654C8.15614 16.1637 8.15784 16.1628 8.15953 16.1611C8.16122 16.1593 8.16207 16.1585 8.16292 16.1576C8.16377 16.1559 8.16546 16.155 8.16631 16.1541C8.16715 16.1524 8.16885 16.1515 8.16969 16.1506C8.17054 16.1489 8.17224 16.148 8.17308 16.1472C8.17393 16.1454 8.17562 16.1446 8.17732 16.1428C8.17817 16.1411 8.17986 16.1402 8.18071 16.1393C8.18155 16.1376 8.18325 16.1367 8.18494 16.135C8.18579 16.1333 8.18748 16.1324 8.18833 16.1315C8.18918 16.1298 8.19087 16.1289 8.19172 16.128C8.19257 16.1272 8.19426 16.1254 8.19511 16.1246C8.19595 16.1228 8.19765 16.122 8.1985 16.1211C8.19934 16.1193 8.20104 16.1185 8.20188 16.1176C8.20273 16.1159 8.20443 16.115 8.20527 16.1141C8.20612 16.1133 8.20781 16.1115 8.20866 16.1106C8.20951 16.1089 8.2112 16.108 8.21205 16.1072C8.2129 16.1054 8.21459 16.1046 8.21628 16.1028C8.21713 16.1011 8.21883 16.1002 8.21967 16.0993C8.22052 16.0976 8.22221 16.0967 8.22391 16.095C8.2256 16.0933 8.22645 16.0924 8.2273 16.0915C8.22814 16.0898 8.22984 16.0889 8.23068 16.088C8.23153 16.0863 8.23323 16.0854 8.23407 16.0846C8.23492 16.0828 8.23661 16.082 8.23746 16.0811C8.23831 16.0793 8.24 16.0785 8.2417 16.0767C8.24254 16.075 8.24424 16.0741 8.24509 16.0733C8.24593 16.0715 8.24763 16.0707 8.24932 16.0689C8.25017 16.0672 8.25186 16.0663 8.25271 16.0654C8.25356 16.0637 8.25525 16.0628 8.2561 16.062C8.25694 16.0602 8.25864 16.0593 8.25949 16.0585C8.26033 16.0567 8.26203 16.0559 8.26287 16.055C8.26372 16.0533 8.26542 16.0524 8.26626 16.0515C8.26711 16.0498 8.2688 16.0489 8.26965 16.048C8.2705 16.0472 8.27219 16.0454 8.27304 16.0446C8.27389 16.0428 8.27558 16.042 8.27643 16.0411C8.27727 16.0393 8.27897 16.0385 8.28066 16.0367C8.28151 16.035 8.2832 16.0341 8.28405 16.0333C8.2849 16.0315 8.28659 16.0307 8.28829 16.0289C8.28998 16.0272 8.29083 16.0263 8.29168 16.0254C8.29252 16.0237 8.29422 16.0228 8.29506 16.022C8.29591 16.0202 8.29761 16.0193 8.29845 16.0185C8.2993 16.0167 8.30099 16.0159 8.30184 16.015C8.30269 16.0133 8.30438 16.0124 8.30608 16.0107C8.30692 16.0089 8.30862 16.008 8.30946 16.0072C8.31031 16.0054 8.31201 16.0046 8.3137 16.0028C8.31539 16.0011 8.31624 16.0002 8.31709 15.9994C8.31793 15.9976 8.31963 15.9967 8.32048 15.9959C8.32132 15.9941 8.32302 15.9933 8.32386 15.9924C8.32471 15.9907 8.32641 15.9898 8.32725 15.9889C8.3281 15.9872 8.32979 15.9863 8.33149 15.9846C8.33234 15.9828 8.33403 15.982 8.33488 15.9811C8.33572 15.9794 8.33742 15.9785 8.33911 15.9767C8.34081 15.975 8.34165 15.9741 8.3425 15.9733C8.34335 15.9715 8.34504 15.9707 8.34589 15.9698C8.34674 15.968 8.34843 15.9672 8.34928 15.9663C8.35012 15.9646 8.35182 15.9637 8.35267 15.9628C8.35351 15.9611 8.35521 15.9602 8.35605 15.9594C8.3569 15.9576 8.3586 15.9567 8.35944 15.9559C8.36029 15.955 8.36198 15.9533 8.36283 15.9524C8.36368 15.9507 8.36537 15.9498 8.36622 15.9489C8.36707 15.9472 8.36876 15.9463 8.37045 15.9446C8.3713 15.9428 8.373 15.942 8.37384 15.9411C8.37469 15.9394 8.37638 15.9385 8.37808 15.9367C8.37977 15.935 8.38062 15.9341 8.38147 15.9333C8.38231 15.9315 8.38401 15.9307 8.38485 15.9298C8.3857 15.928 8.3874 15.9272 8.38824 15.9263C8.38909 15.9246 8.39078 15.9237 8.39163 15.9228C8.39248 15.9211 8.39417 15.9202 8.39587 15.9185C8.39671 15.9167 8.39841 15.9159 8.39926 15.915C8.4001 15.9133 8.4018 15.9124 8.40349 15.9107C8.40518 15.9089 8.40603 15.908 8.40688 15.9072C8.40773 15.9054 8.40942 15.9046 8.41027 15.9037C8.41111 15.9028 8.41281 15.9011 8.41366 15.9002C8.4145 15.8985 8.4162 15.8976 8.41704 15.8967C8.41789 15.895 8.41959 15.8941 8.42043 15.8933C8.42128 15.8915 8.42297 15.8907 8.42382 15.8898C8.42467 15.8889 8.42636 15.8872 8.42721 15.8863C8.42806 15.8846 8.42975 15.8837 8.4306 15.8828C8.43144 15.8811 8.43314 15.8802 8.43483 15.8785C8.43568 15.8767 8.43737 15.8759 8.43822 15.875C8.43907 15.8733 8.44076 15.8724 8.44246 15.8707C8.44415 15.8689 8.445 15.8681 8.44584 15.8672C8.44669 15.8654 8.44839 15.8646 8.44923 15.8637C8.45008 15.862 8.45177 15.8611 8.45262 15.8602C8.45347 15.8585 8.45516 15.8576 8.45601 15.8567C8.45686 15.855 8.45855 15.8541 8.46025 15.8524C8.46109 15.8507 8.46279 15.8498 8.46363 15.8489C8.46448 15.8472 8.46618 15.8463 8.46787 15.8446C8.46956 15.8428 8.47041 15.842 8.47126 15.8411C8.4721 15.8394 8.4738 15.8385 8.47465 15.8376C8.47549 15.8367 8.47719 15.835 8.47803 15.8341C8.47888 15.8324 8.48058 15.8315 8.48142 15.8307C8.48227 15.8289 8.48396 15.8281 8.48566 15.8263C8.48651 15.8246 8.4882 15.8237 8.48905 15.8228C8.48989 15.8211 8.49159 15.8202 8.49328 15.8185C8.49498 15.8167 8.49582 15.8159 8.49667 15.815C8.49752 15.8133 8.49921 15.8124 8.50006 15.8115C8.50091 15.8098 8.5026 15.8089 8.50345 15.8081C8.50429 15.8063 8.50599 15.8054 8.50683 15.8046C8.50768 15.8028 8.50938 15.802 8.51022 15.8011C8.51107 15.7994 8.51276 15.7985 8.51361 15.7976C8.51446 15.7959 8.51615 15.795 8.517 15.7941C8.51785 15.7924 8.51954 15.7915 8.52039 15.7907C8.52124 15.7889 8.52293 15.7881 8.52462 15.7863C8.52547 15.7846 8.52717 15.7837 8.52801 15.7828C8.52886 15.7811 8.53055 15.7802 8.53225 15.7785C8.53309 15.7768 8.53479 15.7759 8.53564 15.775C8.53648 15.7733 8.53818 15.7724 8.53902 15.7715C8.53987 15.7707 8.54157 15.7689 8.54241 15.7681C8.54326 15.7663 8.54495 15.7654 8.5458 15.7646C8.54665 15.7628 8.54834 15.762 8.55004 15.7602C8.55088 15.7585 8.55258 15.7576 8.55343 15.7568C8.55427 15.755 8.55597 15.7541 8.55766 15.7524C8.55935 15.7507 8.5602 15.7498 8.56105 15.7489C8.5619 15.7472 8.56359 15.7463 8.56444 15.7454C8.56528 15.7437 8.56698 15.7428 8.56783 15.742C8.56867 15.7402 8.57037 15.7394 8.57121 15.7385C8.57206 15.7368 8.57375 15.7359 8.57545 15.7341C8.5763 15.7324 8.57799 15.7315 8.57884 15.7307C8.57968 15.7289 8.58138 15.7281 8.58307 15.7263C8.58477 15.7246 8.58561 15.7237 8.58646 15.7228C8.58731 15.7211 8.589 15.7202 8.5907 15.7185C8.59154 15.7168 8.59324 15.7159 8.59408 15.715C8.59493 15.7133 8.59663 15.7124 8.59832 15.7107C8.59917 15.7089 8.60086 15.7081 8.60171 15.7072C8.60256 15.7055 8.60425 15.7046 8.6051 15.7037C8.60594 15.702 8.60764 15.7011 8.60849 15.7002C8.60933 15.6985 8.61103 15.6976 8.61187 15.6968C8.61272 15.695 8.61442 15.6941 8.61611 15.6924C8.61696 15.6907 8.61865 15.6898 8.6195 15.6889C8.62035 15.6872 8.62204 15.6863 8.62373 15.6846C8.62543 15.6828 8.62627 15.682 8.62712 15.6811C8.62797 15.6794 8.62966 15.6785 8.63051 15.6776C8.63136 15.6759 8.63305 15.675 8.6339 15.6741C8.63475 15.6724 8.63644 15.6715 8.63729 15.6707C8.63813 15.6689 8.63983 15.6681 8.64152 15.6663C8.64237 15.6646 8.64406 15.6637 8.64491 15.6628C8.64576 15.6611 8.64745 15.6602 8.64915 15.6585C8.65084 15.6568 8.65169 15.6559 8.65253 15.655C8.65338 15.6533 8.65508 15.6524 8.65592 15.6515C8.65677 15.6498 8.65846 15.6489 8.65931 15.6481C8.66016 15.6463 8.66185 15.6455 8.6627 15.6446C8.66355 15.6428 8.66524 15.642 8.66609 15.6411C8.66693 15.6394 8.66863 15.6385 8.66948 15.6376C8.67032 15.6359 8.67202 15.635 8.67286 15.6341C8.67371 15.6324 8.67541 15.6315 8.67625 15.6307C8.6771 15.6289 8.67879 15.6281 8.68049 15.6263C8.68134 15.6246 8.68303 15.6237 8.68388 15.6228C8.68472 15.6211 8.68642 15.6202 8.68811 15.6185C8.68981 15.6168 8.69065 15.6159 8.6915 15.615C8.69235 15.6133 8.69404 15.6124 8.69489 15.6115C8.69574 15.6098 8.69743 15.6089 8.69828 15.6081C8.69912 15.6063 8.70082 15.6055 8.70167 15.6046C8.70251 15.6028 8.70421 15.602 8.7059 15.6002C8.70675 15.5985 8.70844 15.5976 8.70929 15.5968C8.71014 15.595 8.71183 15.5942 8.71352 15.5924C8.71522 15.5907 8.71607 15.5898 8.71691 15.5889C8.71776 15.5872 8.71945 15.5863 8.7203 15.5855C8.72115 15.5837 8.72284 15.5828 8.72369 15.582C8.72454 15.5802 8.72623 15.5794 8.72708 15.5785C8.72792 15.5768 8.72962 15.5759 8.73131 15.5742C8.73216 15.5724 8.73385 15.5715 8.7347 15.5707C8.73555 15.5689 8.73724 15.5681 8.73894 15.5663C8.74063 15.5646 8.74148 15.5637 8.74233 15.5628C8.74317 15.5611 8.74487 15.5602 8.74656 15.5585C8.74741 15.5568 8.7491 15.5559 8.74995 15.555C8.7508 15.5533 8.75249 15.5524 8.75418 15.5507C8.75588 15.5489 8.75673 15.5481 8.75757 15.5472C8.75842 15.5455 8.76011 15.5446 8.76096 15.5437C8.76181 15.5428 8.7635 15.5411 8.76435 15.5402C8.7652 15.5385 8.76689 15.5376 8.76774 15.5368C8.76859 15.535 8.77028 15.5342 8.77197 15.5324C8.77282 15.5307 8.77451 15.5298 8.77536 15.5289C8.77621 15.5272 8.7779 15.5263 8.7796 15.5246C8.78129 15.5228 8.78214 15.522 8.78299 15.5211C8.78383 15.5194 8.78553 15.5185 8.78637 15.5176C8.78722 15.5159 8.78892 15.515 8.78976 15.5142C8.79061 15.5124 8.7923 15.5115 8.79315 15.5107C8.794 15.5089 8.79569 15.5081 8.79739 15.5063C8.79823 15.5046 8.79993 15.5037 8.80077 15.5028C8.80162 15.5011 8.80332 15.5002 8.80501 15.4985C8.8067 15.4968 8.80755 15.4959 8.8084 15.495C8.80924 15.4933 8.81094 15.4924 8.81179 15.4915C8.81263 15.4907 8.81433 15.4889 8.81517 15.4881C8.81602 15.4863 8.81772 15.4855 8.81856 15.4846C8.81941 15.4829 8.8211 15.482 8.82195 15.4811C8.8228 15.4794 8.82449 15.4785 8.82534 15.4776C8.82619 15.4768 8.82788 15.475 8.82873 15.4742C8.82958 15.4724 8.83127 15.4715 8.83212 15.4707C8.83296 15.4689 8.83466 15.4681 8.83635 15.4663C8.8372 15.4646 8.83889 15.4637 8.83974 15.4629C8.84059 15.4611 8.84228 15.4602 8.84398 15.4585C8.84567 15.4568 8.84652 15.4559 8.84736 15.455C8.84821 15.4533 8.84991 15.4524 8.85075 15.4515C8.8516 15.4498 8.85329 15.4489 8.85414 15.4481C8.85499 15.4463 8.85668 15.4455 8.85753 15.4446C8.85838 15.4429 8.86007 15.442 8.86176 15.4402C8.86261 15.4385 8.86431 15.4376 8.86515 15.4368C8.866 15.435 8.86769 15.4342 8.86939 15.4324C8.87108 15.4307 8.87193 15.4298 8.87278 15.4289C8.87362 15.4272 8.87532 15.4263 8.87616 15.4255C8.87701 15.4246 8.87871 15.4229 8.87955 15.422C8.8804 15.4202 8.88209 15.4194 8.88294 15.4185C8.88379 15.4168 8.88548 15.4159 8.88718 15.4142C8.88802 15.4124 8.88972 15.4115 8.89057 15.4107C8.89141 15.4089 8.89311 15.4081 8.8948 15.4063C8.8965 15.4046 8.89734 15.4037 8.89819 15.4029C8.89904 15.4011 8.90073 15.4002 8.90242 15.3985C8.90327 15.3968 8.90497 15.3959 8.90581 15.395C8.90666 15.3933 8.90835 15.3924 8.91005 15.3907C8.91174 15.3889 8.91259 15.3881 8.91344 15.3872C8.91428 15.3855 8.91598 15.3846 8.91683 15.3837C8.91767 15.382 8.91937 15.3811 8.92021 15.3802C8.92106 15.3785 8.92275 15.3776 8.9236 15.3768C8.92445 15.375 8.92614 15.3742 8.92784 15.3724C8.92868 15.3707 8.93038 15.3698 8.93123 15.3689C8.93207 15.3672 8.93377 15.3663 8.93546 15.3646C8.93715 15.3629 8.938 15.362 8.93885 15.3611C8.9397 15.3594 8.94139 15.3585 8.94224 15.3576C8.94308 15.3559 8.94478 15.355 8.94563 15.3542C8.94647 15.3524 8.94817 15.3516 8.94901 15.3507C8.94986 15.3489 8.95156 15.3481 8.95325 15.3463C8.9541 15.3446 8.95579 15.3437 8.95664 15.3429C8.95749 15.3411 8.95918 15.3402 8.96087 15.3385C8.96257 15.3368 8.96342 15.3359 8.96426 15.335C8.96511 15.3333 8.9668 15.3324 8.96765 15.3316C8.9685 15.3307 8.97019 15.3289 8.97104 15.3281C8.97104 15.3272 8.97189 15.3272 8.97273 15.3272L15.2073 16.9228C15.2073 18.2775 16.2772 19.6488 17.5961 19.9861C18.4211 20.1974 19.1479 19.954 19.5774 19.4114C19.5783 19.4096 19.58 19.4088 19.5816 19.407C19.5833 19.4053 19.5842 19.4044 19.5859 19.4027C19.5867 19.4009 19.5884 19.4001 19.5893 19.3992C19.5901 19.3975 19.5918 19.3966 19.5935 19.3949C19.5952 19.3931 19.596 19.3922 19.5977 19.3905C19.5986 19.3888 19.6003 19.3879 19.6011 19.387C19.602 19.3853 19.6037 19.3844 19.6045 19.3836C19.6054 19.3818 19.6071 19.3809 19.6088 19.3792C19.6104 19.3775 19.6113 19.3766 19.613 19.3749C19.6138 19.3731 19.6155 19.3722 19.6164 19.3714C19.6172 19.3696 19.6189 19.3688 19.6206 19.367C19.6223 19.3653 19.6232 19.3644 19.6248 19.3627C19.6257 19.3609 19.6274 19.3601 19.6282 19.3592C19.6291 19.3575 19.6308 19.3566 19.6316 19.3557C19.6325 19.354 19.6342 19.3531 19.6359 19.3514C19.6376 19.3496 19.6384 19.3488 19.6401 19.347C19.6409 19.3453 19.6426 19.3444 19.6435 19.3436C19.6443 19.3418 19.646 19.3409 19.6469 19.3401C19.6477 19.3383 19.6494 19.3375 19.6511 19.3357C19.652 19.334 19.6536 19.3331 19.6545 19.3322C19.6553 19.3305 19.657 19.3296 19.6579 19.3288C19.6587 19.327 19.6604 19.3262 19.6621 19.3244C19.6638 19.3227 19.6647 19.3218 19.6664 19.3201C19.6672 19.3183 19.6689 19.3175 19.6697 19.3166C19.6706 19.3149 19.6723 19.314 19.6731 19.3131C19.674 19.3114 19.6757 19.3105 19.6774 19.3088C19.6791 19.307 19.6799 19.3062 19.6816 19.3044C19.6824 19.3027 19.6841 19.3018 19.685 19.3009C19.6858 19.2992 19.6875 19.2983 19.6892 19.2966C19.6909 19.2949 19.6918 19.294 19.6935 19.2922C19.6943 19.2905 19.696 19.2896 19.6968 19.2888C19.6977 19.287 19.6994 19.2862 19.7002 19.2853C19.7011 19.2836 19.7028 19.2827 19.7045 19.2809C19.7062 19.2792 19.707 19.2783 19.7087 19.2766C19.7096 19.2749 19.7113 19.274 19.7121 19.2731C19.7129 19.2714 19.7146 19.2705 19.7163 19.2688C19.718 19.267 19.7189 19.2662 19.7206 19.2644C19.7214 19.2627 19.7231 19.2618 19.724 19.2609C19.7248 19.2592 19.7265 19.2583 19.7273 19.2575C19.7282 19.2557 19.7299 19.2549 19.7316 19.2531C19.7333 19.2514 19.7341 19.2505 19.7358 19.2488C19.7367 19.247 19.7384 19.2462 19.7392 19.2453C19.7401 19.2436 19.7417 19.2427 19.7426 19.2418C19.7434 19.2401 19.7451 19.2392 19.7468 19.2375C19.7485 19.2357 19.7494 19.2349 19.7511 19.2331C19.7519 19.2314 19.7536 19.2305 19.7545 19.2296C19.7553 19.2279 19.757 19.227 19.7587 19.2253C19.7595 19.2236 19.7612 19.2227 19.7629 19.2209C19.7638 19.2192 19.7655 19.2183 19.7663 19.2175C19.7672 19.2157 19.7689 19.2149 19.7697 19.214C19.7705 19.2123 19.7722 19.2114 19.7739 19.2096C19.7756 19.2079 19.7765 19.207 19.7782 19.2053C19.779 19.2036 19.7807 19.2027 19.7816 19.2018C19.7824 19.2001 19.7841 19.1992 19.7858 19.1975C19.7875 19.1957 19.7883 19.1949 19.79 19.1931C19.7909 19.1914 19.7926 19.1905 19.7934 19.1896C19.7943 19.1879 19.796 19.187 19.7968 19.1862C19.7977 19.1844 19.7993 19.1836 19.801 19.1818C19.8019 19.1801 19.8036 19.1792 19.8053 19.1775C19.8061 19.1757 19.8078 19.1749 19.8087 19.174C19.8095 19.1723 19.8112 19.1714 19.8121 19.1705C19.8129 19.1688 19.8146 19.1679 19.8163 19.1662C19.8171 19.1644 19.8188 19.1636 19.8197 19.1627C19.8205 19.161 19.8222 19.1601 19.8231 19.1592C19.8239 19.1575 19.8256 19.1566 19.8273 19.1549C19.829 19.1531 19.8298 19.1523 19.8315 19.1505C19.8324 19.1488 19.8341 19.1479 19.8349 19.147C19.8358 19.1453 19.8375 19.1444 19.8383 19.1436C19.8392 19.1418 19.8409 19.141 19.8425 19.1392C19.8442 19.1375 19.8451 19.1366 19.8468 19.1349C19.8476 19.1331 19.8493 19.1323 19.8502 19.1314C19.851 19.1296 19.8527 19.1288 19.8544 19.127C19.8561 19.1253 19.8569 19.1244 19.8586 19.1227C19.8595 19.121 19.8612 19.1201 19.862 19.1192C19.8629 19.1175 19.8646 19.1166 19.8654 19.1157C19.8663 19.114 19.868 19.1131 19.8697 19.1114C19.8713 19.1096 19.8722 19.1088 19.8739 19.107C19.8747 19.1053 19.8764 19.1044 19.8773 19.1036C19.8781 19.1018 19.8798 19.101 19.8815 19.0992C19.8832 19.0975 19.8841 19.0966 19.8857 19.0949C19.8866 19.0931 19.8883 19.0923 19.8891 19.0914C19.89 19.0896 19.8917 19.0888 19.8925 19.0879C19.8934 19.0862 19.8951 19.0853 19.8968 19.0836C19.8985 19.0818 19.8993 19.081 19.901 19.0792C19.9018 19.0775 19.9035 19.0766 19.9044 19.0757C19.9052 19.074 19.9069 19.0731 19.9078 19.0723C19.9086 19.0705 19.9103 19.0697 19.912 19.0679C19.9137 19.0662 19.9146 19.0653 19.9162 19.0636C19.9171 19.0618 19.9188 19.061 19.9196 19.0601C19.9205 19.0583 19.9222 19.0575 19.9239 19.0557C19.9256 19.054 19.9264 19.0531 19.9281 19.0514C19.929 19.0497 19.9306 19.0488 19.9315 19.0479C19.9323 19.0462 19.934 19.0453 19.9349 19.0444C19.9357 19.0427 19.9374 19.0418 19.9391 19.0401C19.9408 19.0383 19.9417 19.0375 19.9434 19.0357C19.9442 19.034 19.9459 19.0331 19.9467 19.0323C19.9476 19.0305 19.9493 19.0297 19.951 19.0279C19.9527 19.0262 19.9535 19.0253 19.9552 19.0236C19.9561 19.0218 19.9578 19.021 19.9586 19.0201C19.9594 19.0183 19.9611 19.0175 19.962 19.0166C19.9628 19.0149 19.9645 19.014 19.9662 19.0123C19.9679 19.0105 19.9688 19.0097 19.9705 19.0079C19.9713 19.0062 19.973 19.0053 19.9738 19.0044C19.9747 19.0027 19.9764 19.0018 19.9772 19.001C19.9781 18.9992 19.9798 18.9984 19.9815 18.9966C19.9823 18.9949 19.984 18.994 19.9849 18.9931C19.9857 18.9914 19.9874 18.9905 19.9882 18.9897C19.9891 18.9879 19.9908 18.987 19.9925 18.9853C19.9942 18.9836 19.995 18.9827 19.9967 18.981C19.9976 18.9792 19.9993 18.9783 20.0001 18.9775C20.001 18.9757 20.0026 18.9749 20.0035 18.974C20.0043 18.9723 20.006 18.9714 20.0077 18.9697C20.0094 18.9679 20.0103 18.967 20.012 18.9653C20.0128 18.9636 20.0145 18.9627 20.0154 18.9618C20.0162 18.9601 20.0179 18.9592 20.0196 18.9575C20.0213 18.9557 20.0221 18.9549 20.0238 18.9531C20.0247 18.9514 20.0264 18.9505 20.0272 18.9497C20.0281 18.9479 20.0298 18.947 20.0306 18.9462C20.0314 18.9444 20.0331 18.9436 20.0348 18.9418C20.0365 18.9401 20.0374 18.9392 20.0391 18.9375C20.0399 18.9357 20.0416 18.9349 20.0425 18.934C20.0433 18.9323 20.045 18.9314 20.0467 18.9297C20.0484 18.9279 20.0492 18.927 20.0509 18.9253C20.0518 18.9236 20.0535 18.9227 20.0543 18.9218C20.0552 18.9201 20.0569 18.9192 20.0577 18.9184C20.0586 18.9166 20.0602 18.9157 20.0619 18.914C20.0636 18.9123 20.0645 18.9114 20.0662 18.9097C20.067 18.9079 20.0687 18.907 20.0696 18.9062C20.0704 18.9044 20.0721 18.9036 20.073 18.9027C20.0738 18.901 20.0755 18.9001 20.0772 18.8984C20.0789 18.8966 20.0797 18.8957 20.0814 18.894C20.0823 18.8923 20.084 18.8914 20.0848 18.8905C20.0857 18.8888 20.0874 18.8879 20.0891 18.8862C20.0907 18.8844 20.0916 18.8836 20.0933 18.8818C20.0941 18.8801 20.0958 18.8792 20.0967 18.8784C20.0975 18.8766 20.0992 18.8757 20.1001 18.8749C20.1009 18.8731 20.1026 18.8723 20.1043 18.8705C20.106 18.8688 20.1068 18.8679 20.1085 18.8662C20.1094 18.8644 20.1111 18.8636 20.1119 18.8627C20.1128 18.861 20.1145 18.8601 20.1162 18.8584C20.1179 18.8566 20.1187 18.8557 20.1204 18.854C20.1212 18.8523 20.1229 18.8514 20.1238 18.8505C20.1246 18.8488 20.1263 18.8479 20.1272 18.8471C20.128 18.8453 20.1297 18.8444 20.1314 18.8427C20.1323 18.841 20.1339 18.8401 20.1356 18.8384C20.1365 18.8366 20.1382 18.8357 20.139 18.8349C20.1399 18.8331 20.1416 18.8323 20.1424 18.8314C20.1433 18.8297 20.145 18.8288 20.1467 18.8271C20.1475 18.8253 20.1492 18.8244 20.15 18.8236C20.1509 18.8218 20.1526 18.821 20.1534 18.8201C20.1543 18.8184 20.156 18.8175 20.1577 18.8157C20.1594 18.814 20.1602 18.8131 20.1619 18.8114C20.1627 18.8097 20.1644 18.8088 20.1653 18.8079C20.1661 18.8062 20.1678 18.8053 20.1687 18.8044C20.1695 18.8027 20.1712 18.8018 20.1729 18.8001C20.1746 18.7984 20.1755 18.7975 20.1771 18.7957C20.178 18.794 20.1797 18.7931 20.1805 18.7923C20.1814 18.7905 20.1831 18.7897 20.1848 18.7879C20.1865 18.7862 20.1873 18.7853 20.189 18.7836C20.1899 18.7818 20.1915 18.781 20.1924 18.7801C20.1932 18.7784 20.1949 18.7775 20.1958 18.7766C20.1966 18.7749 20.1983 18.774 20.2 18.7723C20.2009 18.7705 20.2026 18.7697 20.2043 18.7679C20.2051 18.7662 20.2068 18.7653 20.2076 18.7644C20.2085 18.7627 20.2102 18.7618 20.2119 18.7601C20.2136 18.7584 20.2144 18.7575 20.2161 18.7558C20.217 18.754 20.2187 18.7531 20.2195 18.7523C20.2203 18.7505 20.222 18.7497 20.2229 18.7488C20.2237 18.7471 20.2254 18.7462 20.2271 18.7444C20.2288 18.7427 20.2297 18.7418 20.2314 18.7401C20.2322 18.7384 20.2339 18.7375 20.2347 18.7366C20.2356 18.7349 20.2373 18.734 20.2381 18.7331C20.239 18.7314 20.2407 18.7305 20.2424 18.7288C20.2441 18.7271 20.2449 18.7262 20.2466 18.7244C20.2475 18.7227 20.2491 18.7218 20.25 18.721C20.2508 18.7192 20.2525 18.7184 20.2542 18.7166C20.2559 18.7149 20.2568 18.714 20.2585 18.7123C20.2593 18.7105 20.261 18.7097 20.2619 18.7088C20.2627 18.7071 20.2644 18.7062 20.2652 18.7053C20.2661 18.7036 20.2678 18.7027 20.2695 18.701C20.2712 18.6992 20.272 18.6984 20.2737 18.6966C20.2746 18.6949 20.2763 18.694 20.2771 18.6931C20.278 18.6914 20.2796 18.6905 20.2813 18.6888C20.283 18.6871 20.2839 18.6862 20.2856 18.6845C20.2864 18.6827 20.2881 18.6818 20.289 18.681C20.2898 18.6792 20.2915 18.6784 20.2924 18.6775C20.2932 18.6758 20.2949 18.6749 20.2966 18.6731C20.2983 18.6714 20.2991 18.6705 20.3008 18.6688C20.3017 18.6671 20.3034 18.6662 20.3042 18.6653C20.3051 18.6636 20.3068 18.6627 20.3076 18.6618C20.3084 18.6601 20.3101 18.6592 20.3118 18.6575C20.3127 18.6558 20.3144 18.6549 20.3152 18.654C20.3161 18.6523 20.3178 18.6514 20.3186 18.6505C20.3195 18.6488 20.3212 18.6479 20.3228 18.6462C20.3245 18.6445 20.3254 18.6436 20.3271 18.6418C20.3279 18.6401 20.3296 18.6392 20.3305 18.6384C20.3313 18.6366 20.333 18.6358 20.3339 18.6349C20.3347 18.6331 20.3364 18.6323 20.3381 18.6305C20.3398 18.6288 20.3406 18.6279 20.3423 18.6262C20.3432 18.6245 20.3449 18.6236 20.3457 18.6227C20.3466 18.621 20.3483 18.6201 20.35 18.6184C20.3516 18.6166 20.3525 18.6158 20.3542 18.614C20.355 18.6123 20.3567 18.6114 20.3576 18.6105C20.3584 18.6088 20.3601 18.6079 20.361 18.6071C20.3618 18.6053 20.3635 18.6045 20.3652 18.6027C20.3669 18.601 20.3677 18.6001 20.3694 18.5984C20.3703 18.5966 20.372 18.5958 20.3728 18.5949C20.3737 18.5932 20.3754 18.5923 20.3771 18.5905C20.3788 18.5888 20.3796 18.5879 20.3813 18.5862C20.3821 18.5845 20.3838 18.5836 20.3847 18.5827C20.3855 18.581 20.3872 18.5801 20.3881 18.5792C20.3889 18.5775 20.3906 18.5766 20.3923 18.5749C20.394 18.5732 20.3948 18.5723 20.3965 18.5705C20.3974 18.5688 20.3991 18.5679 20.3999 18.5671C20.4008 18.5653 20.4025 18.5645 20.4033 18.5636C20.4042 18.5618 20.4059 18.561 20.4076 18.5592C20.4084 18.5575 20.4101 18.5566 20.4109 18.5558C20.4118 18.554 20.4135 18.5532 20.4143 18.5523C20.4152 18.5505 20.4169 18.5497 20.4186 18.5479C20.4203 18.5462 20.4211 18.5453 20.4228 18.5436C20.4237 18.5418 20.4253 18.541 20.4262 18.5401C20.427 18.5384 20.4287 18.5375 20.4296 18.5366C20.4304 18.5349 20.4321 18.534 20.4338 18.5323C20.4355 18.5305 20.4364 18.5297 20.438 18.5279C20.4389 18.5262 20.4406 18.5253 20.4414 18.5245C20.4423 18.5227 20.444 18.5218 20.4457 18.5201C20.4465 18.5184 20.4482 18.5175 20.4499 18.5158C20.4508 18.514 20.4525 18.5132 20.4533 18.5123C20.4541 18.5105 20.4558 18.5097 20.4567 18.5088C20.4575 18.5071 20.4592 18.5062 20.4609 18.5045C20.4626 18.5027 20.4635 18.5018 20.4652 18.5001C20.466 18.4984 20.4677 18.4975 20.4685 18.4966C20.4694 18.4949 20.4711 18.494 20.4719 18.4932C20.4728 18.4914 20.4745 18.4905 20.4762 18.4888C20.477 18.4871 20.4787 18.4862 20.4796 18.4853C20.4804 18.4836 20.4821 18.4827 20.4829 18.4818C20.4838 18.4801 20.4855 18.4792 20.4872 18.4775C20.4889 18.4758 20.4897 18.4749 20.4914 18.4732C20.4923 18.4714 20.494 18.4705 20.4948 18.4697C20.4957 18.4679 20.4973 18.4671 20.4982 18.4662C20.499 18.4645 20.5007 18.4636 20.5024 18.4619C20.5033 18.4601 20.505 18.4592 20.5067 18.4575C20.5075 18.4558 20.5092 18.4549 20.5101 18.454C20.5109 18.4523 20.5126 18.4514 20.5143 18.4497C20.516 18.4479 20.5168 18.4471 20.5185 18.4453C20.5194 18.4436 20.5211 18.4427 20.5219 18.4419C20.5228 18.4401 20.5245 18.4392 20.5253 18.4384C20.5261 18.4366 20.5278 18.4358 20.5295 18.434C20.5312 18.4323 20.5321 18.4314 20.5338 18.4297C20.5346 18.4279 20.5363 18.4271 20.5372 18.4262C20.538 18.4245 20.5397 18.4236 20.5414 18.4219C20.5431 18.4201 20.5439 18.4192 20.5456 18.4175C20.5465 18.4158 20.5482 18.4149 20.549 18.414C20.5499 18.4123 20.5516 18.4114 20.5524 18.4105C20.5533 18.4088 20.5549 18.4079 20.5566 18.4062C20.5583 18.4045 20.5592 18.4036 20.5609 18.4019C20.5617 18.4001 20.5634 18.3992 20.5643 18.3984C20.5651 18.3966 20.5668 18.3958 20.5677 18.3949C20.5685 18.3932 20.5702 18.3923 20.5719 18.3906C20.5727 18.3888 20.5744 18.3879 20.5753 18.3871C20.5761 18.3853 20.5778 18.3845 20.5787 18.3836C20.5795 18.3819 20.5812 18.381 20.5829 18.3792C20.5846 18.3775 20.5854 18.3766 20.5871 18.3749C20.588 18.3732 20.5897 18.3723 20.5905 18.3714C20.5914 18.3697 20.5931 18.3688 20.5939 18.3679C20.5948 18.3662 20.5965 18.3653 20.5981 18.3636C20.5998 18.3619 20.6007 18.361 20.6024 18.3592C20.6032 18.3575 20.6049 18.3566 20.6058 18.3558C20.6066 18.354 20.6083 18.3532 20.61 18.3514C20.6117 18.3497 20.6126 18.3488 20.6142 18.3471C20.6151 18.3453 20.6168 18.3445 20.6176 18.3436C20.6185 18.3419 20.6202 18.341 20.621 18.3401C20.6219 18.3384 20.6236 18.3375 20.6253 18.3358C20.627 18.334 20.6278 18.3332 20.6295 18.3314C20.6303 18.3297 20.632 18.3288 20.6329 18.3279C20.6337 18.3262 20.6354 18.3253 20.6371 18.3236C20.6388 18.3219 20.6397 18.321 20.6414 18.3192C20.6422 18.3175 20.6439 18.3166 20.6447 18.3158C20.6456 18.314 20.6473 18.3132 20.6481 18.3123C20.649 18.3106 20.6507 18.3097 20.6524 18.3079C20.6541 18.3062 20.6549 18.3053 20.6566 18.3036C20.6574 18.3019 20.6591 18.301 20.66 18.3001C20.6608 18.2984 20.6625 18.2975 20.6634 18.2966C20.6642 18.2949 20.6659 18.294 20.6676 18.2923C20.6693 18.2906 20.6702 18.2897 20.6718 18.2879C20.6727 18.2862 20.6744 18.2853 20.6752 18.2845C20.6761 18.2827 20.6778 18.2819 20.6795 18.2801C20.6812 18.2784 20.682 18.2775 20.6837 18.2758C20.6846 18.274 20.6862 18.2732 20.6871 18.2723C20.6879 18.2706 20.6896 18.2697 20.6905 18.2688C20.6913 18.2679 20.693 18.2671 20.6939 18.2653C21.2462 18.2966 21.7205 18.0871 22.0238 17.7036C22.0246 17.7019 22.0263 17.701 22.0272 17.7001C22.028 17.6984 22.0297 17.6975 22.0306 17.6967C22.0314 17.6949 22.0331 17.6941 22.034 17.6932C22.0348 17.6915 22.0365 17.6906 22.0373 17.6897C22.0382 17.6888 22.0399 17.6871 22.0407 17.6862C22.0416 17.6845 22.0433 17.6836 22.0441 17.6828C22.045 17.681 22.0467 17.6801 22.0475 17.6793C22.0484 17.6784 22.0501 17.6767 22.0509 17.6758C22.0518 17.6741 22.0534 17.6732 22.0543 17.6723C22.0551 17.6706 22.0568 17.6697 22.0577 17.6688C22.0585 17.6671 22.0602 17.6662 22.0619 17.6645C22.0628 17.6628 22.0645 17.6619 22.0653 17.661C22.0662 17.6593 22.0678 17.6584 22.0695 17.6567C22.0704 17.6549 22.0721 17.6541 22.0729 17.6532C22.0738 17.6523 22.0755 17.6506 22.0763 17.6497C22.0772 17.6488 22.0789 17.6471 22.0797 17.6462C22.0806 17.6445 22.0822 17.6436 22.0831 17.6428C22.0839 17.641 22.0856 17.6401 22.0865 17.6393C22.0873 17.6375 22.089 17.6367 22.0899 17.6358C22.0907 17.6341 22.0924 17.6332 22.0933 17.6323C22.0941 17.6306 22.0958 17.6297 22.0966 17.6288C22.0975 17.628 22.0992 17.6262 22.1 17.6254C22.1009 17.6245 22.1026 17.6228 22.1034 17.6219C22.1043 17.6201 22.106 17.6193 22.1068 17.6184C22.1077 17.6167 22.1094 17.6158 22.1102 17.6149C22.111 17.6141 22.1127 17.6123 22.1136 17.6115C22.1144 17.6097 22.1161 17.6088 22.117 17.608C22.1178 17.6062 22.1195 17.6054 22.1204 17.6045C22.1212 17.6028 22.1229 17.6019 22.1246 17.6001C22.1254 17.5984 22.1271 17.5975 22.128 17.5967C22.1288 17.5949 22.1305 17.5941 22.1322 17.5923C22.1331 17.5906 22.1348 17.5897 22.1356 17.5888C22.1365 17.588 22.1382 17.5862 22.139 17.5854C22.1398 17.5845 22.1415 17.5828 22.1424 17.5819C22.1432 17.5802 22.1449 17.5793 22.1458 17.5784C22.1466 17.5767 22.1483 17.5758 22.15 17.5741C22.1509 17.5723 22.1526 17.5715 22.1534 17.5706C22.1542 17.5688 22.1559 17.568 22.1576 17.5662C22.1585 17.5645 22.1602 17.5636 22.161 17.5628C22.1619 17.5619 22.1636 17.5602 22.1644 17.5593C22.1653 17.5584 22.167 17.5567 22.1678 17.5558C22.1686 17.5541 22.1703 17.5532 22.1712 17.5523C22.172 17.5506 22.1737 17.5497 22.1746 17.5488C22.1754 17.5471 22.1771 17.5462 22.178 17.5454C22.1788 17.5436 22.1805 17.5428 22.1814 17.5419C22.1822 17.5402 22.1839 17.5393 22.1847 17.5384C22.1856 17.5367 22.1873 17.5358 22.1881 17.5349C22.189 17.5341 22.1907 17.5323 22.1915 17.5315C22.1924 17.5297 22.1941 17.5288 22.1949 17.528C22.1958 17.5262 22.1974 17.5254 22.1983 17.5245C22.1991 17.5236 22.2008 17.5219 22.2017 17.521C22.2025 17.5202 22.2042 17.5184 22.2051 17.5175C22.2059 17.5158 22.2076 17.5149 22.2085 17.5141C22.2093 17.5123 22.211 17.5115 22.2127 17.5097C22.2135 17.508 22.2152 17.5071 22.2161 17.5062C22.2169 17.5045 22.2186 17.5036 22.2203 17.5019C22.2212 17.5002 22.2229 17.4993 22.2237 17.4984C22.2246 17.4975 22.2262 17.4958 22.2271 17.4949C22.2279 17.4941 22.2296 17.4923 22.2305 17.4915C22.2313 17.4897 22.233 17.4888 22.2339 17.488C22.2347 17.4862 22.2364 17.4854 22.2373 17.4845C22.2381 17.4828 22.2398 17.4819 22.2407 17.481C22.2415 17.4793 22.2432 17.4784 22.244 17.4775C22.2449 17.4758 22.2466 17.4749 22.2474 17.4741C22.2483 17.4732 22.25 17.4715 22.2508 17.4706C22.2517 17.4697 22.2534 17.468 22.2542 17.4671C22.2551 17.4654 22.2567 17.4645 22.2576 17.4636C22.2584 17.4619 22.2601 17.461 22.261 17.4602C22.2618 17.4593 22.2635 17.4575 22.2644 17.4567C22.2652 17.4549 22.2669 17.4541 22.2678 17.4532C22.2686 17.4515 22.2703 17.4506 22.2711 17.4497C22.272 17.448 22.2737 17.4471 22.2754 17.4454C22.2762 17.4436 22.2779 17.4428 22.2788 17.4419C22.2796 17.4402 22.2813 17.4393 22.283 17.4375C22.2839 17.4358 22.2855 17.4349 22.2864 17.4341C22.2872 17.4332 22.2889 17.4315 22.2898 17.4306C22.2906 17.4297 22.2923 17.428 22.2932 17.4271C22.294 17.4254 22.2957 17.4245 22.2966 17.4236C22.2974 17.4219 22.2991 17.421 22.3008 17.4193C22.3016 17.4175 22.3033 17.4167 22.3042 17.4158C22.305 17.4141 22.3067 17.4132 22.3084 17.4115C22.3093 17.4097 22.311 17.4089 22.3118 17.408C22.3127 17.4071 22.3143 17.4054 22.3152 17.4045C22.316 17.4036 22.3177 17.4019 22.3186 17.401C22.3194 17.3993 22.3211 17.3984 22.322 17.3976C22.3228 17.3958 22.3245 17.3949 22.3254 17.3941C22.3262 17.3932 22.3279 17.3915 22.3287 17.3906C22.3296 17.3889 22.3313 17.388 22.3321 17.3871C22.333 17.3854 22.3347 17.3845 22.3355 17.3836C22.3364 17.3819 22.3381 17.381 22.3389 17.3802C22.3398 17.3793 22.3415 17.3776 22.3423 17.3767C22.3431 17.3749 22.3448 17.3741 22.3457 17.3732C22.3465 17.3715 22.3482 17.3706 22.3491 17.3697C22.3499 17.3689 22.3516 17.3671 22.3525 17.3662C22.3533 17.3654 22.355 17.3636 22.3559 17.3628C22.3567 17.361 22.3584 17.3602 22.3592 17.3593C22.3601 17.3576 22.3618 17.3567 22.3635 17.3549C22.3643 17.3532 22.366 17.3523 22.3669 17.3515C22.3677 17.3497 22.3694 17.3489 22.3711 17.3471C22.372 17.3454 22.3736 17.3445 22.3745 17.3436C22.3753 17.3428 22.377 17.341 22.3779 17.3402C22.3787 17.3393 22.3804 17.3376 22.3813 17.3367C22.3821 17.3349 22.3838 17.3341 22.3847 17.3332C22.3855 17.3315 22.3872 17.3306 22.388 17.3297C22.3889 17.3289 22.3906 17.3271 22.3914 17.3262C22.3923 17.3245 22.394 17.3236 22.3948 17.3228C22.3957 17.321 22.3974 17.3202 22.3982 17.3193C22.3991 17.3176 22.4008 17.3167 22.4016 17.3158C22.4024 17.3149 22.4041 17.3132 22.405 17.3123C22.4058 17.3106 22.4075 17.3097 22.4084 17.3089C22.4092 17.3071 22.4109 17.3062 22.4118 17.3054C22.4126 17.3045 22.4143 17.3028 22.4151 17.3019C22.416 17.301 22.4177 17.2993 22.4185 17.2984C22.4194 17.2967 22.4211 17.2958 22.4219 17.2949C22.4228 17.2932 22.4245 17.2923 22.4253 17.2915C22.4262 17.2897 22.4279 17.2889 22.4287 17.288C22.4296 17.2863 22.4312 17.2854 22.4321 17.2845C22.4329 17.2828 22.4346 17.2819 22.4355 17.281C22.4363 17.2802 22.438 17.2784 22.4389 17.2776C22.4397 17.2767 22.4414 17.2749 22.4423 17.2741C22.4431 17.2723 22.4448 17.2715 22.4456 17.2706C22.4465 17.2689 22.4482 17.268 22.4499 17.2663C22.4507 17.2645 22.4524 17.2636 22.4533 17.2628C22.4541 17.261 22.4558 17.2602 22.4575 17.2584C22.4584 17.2567 22.46 17.2558 22.4609 17.2549C22.4617 17.2532 22.4634 17.2523 22.4643 17.2515C22.4651 17.2506 22.4668 17.2489 22.4677 17.248C22.4685 17.2463 22.4702 17.2454 22.4711 17.2445C22.4719 17.2428 22.4736 17.2419 22.4744 17.241C22.4753 17.2402 22.477 17.2384 22.4778 17.2376C22.4787 17.2367 22.4804 17.2349 22.4812 17.2341C22.4821 17.2323 22.4838 17.2315 22.4846 17.2306C22.4855 17.2289 22.4872 17.228 22.488 17.2271C22.4888 17.2254 22.4905 17.2245 22.4914 17.2236C22.4922 17.2219 22.4939 17.221 22.4948 17.2202C22.4956 17.2184 22.4973 17.2176 22.4982 17.2167C22.499 17.2158 22.5007 17.2141 22.5016 17.2132C22.5024 17.2123 22.5041 17.2106 22.5049 17.2097C22.5058 17.208 22.5075 17.2071 22.5083 17.2063C22.5092 17.2045 22.5109 17.2036 22.5126 17.2019C22.5134 17.2002 22.5151 17.1993 22.516 17.1984C22.5168 17.1967 22.5185 17.1958 22.5202 17.1941C22.521 17.1923 22.5227 17.1915 22.5236 17.1906C22.5244 17.1889 22.5261 17.188 22.527 17.1871C22.5278 17.1863 22.5295 17.1845 22.5304 17.1836C22.5312 17.1819 22.5329 17.181 22.5337 17.1802C22.5346 17.1784 22.5363 17.1776 22.5371 17.1767C22.538 17.1758 22.5397 17.1741 22.5405 17.1732C22.5414 17.1723 22.5431 17.1706 22.5439 17.1697C22.5448 17.168 22.5464 17.1671 22.5473 17.1663C22.5481 17.1645 22.5498 17.1636 22.5507 17.1628C22.5515 17.161 22.5532 17.1602 22.5541 17.1593C22.5549 17.1576 22.5566 17.1567 22.5575 17.1558C22.5583 17.1541 22.56 17.1532 22.5608 17.1523C22.5617 17.1515 22.5634 17.1497 22.5642 17.1489C22.5651 17.148 22.5668 17.1463 22.5676 17.1454C22.5685 17.1436 22.5702 17.1428 22.571 17.1419C22.5719 17.1402 22.5736 17.1393 22.5744 17.1384C22.5752 17.1367 22.5769 17.1358 22.5778 17.135C22.5786 17.1332 22.5803 17.1323 22.5812 17.1315C22.582 17.1297 22.5837 17.1289 22.5846 17.128C22.5854 17.1271 22.5871 17.1254 22.588 17.1245C22.5888 17.1236 22.5905 17.1219 22.5913 17.121C22.5922 17.1193 22.5939 17.1184 22.5947 17.1176C22.5956 17.1158 22.5973 17.115 22.599 17.1132C22.5998 17.1115 22.6015 17.1106 22.6024 17.1097C22.6032 17.108 22.6049 17.1071 22.6066 17.1054C22.6074 17.1036 22.6091 17.1028 22.61 17.1019C22.6108 17.1002 22.6125 17.0993 22.6134 17.0984C22.6142 17.0967 22.6159 17.0958 22.6168 17.095C22.6176 17.0932 22.6193 17.0923 22.6201 17.0915C22.621 17.0897 22.6227 17.0889 22.6235 17.088C22.6244 17.0871 22.6261 17.0854 22.6269 17.0845C22.6278 17.0837 22.6295 17.0819 22.6303 17.081C22.6312 17.0793 22.6329 17.0784 22.6337 17.0776C22.6345 17.0758 22.6362 17.075 22.6371 17.0741C22.6379 17.0723 22.6396 17.0715 22.6405 17.0706C22.6413 17.0689 22.643 17.068 22.6439 17.0671C22.6447 17.0654 22.6464 17.0645 22.6473 17.0637C22.6481 17.0628 22.6498 17.061 22.6506 17.0602C22.6515 17.0593 22.6532 17.0576 22.654 17.0567C22.6549 17.055 22.6566 17.0541 22.6574 17.0532C22.6583 17.0515 22.66 17.0506 22.6617 17.0489C22.6625 17.0471 22.6642 17.0463 22.665 17.0454C22.6659 17.0437 22.6676 17.0428 22.6693 17.041C22.6701 17.0393 22.6718 17.0384 22.6727 17.0376C22.6735 17.0358 22.6752 17.035 22.6761 17.0341C22.6769 17.0332 22.6786 17.0315 22.6794 17.0306C22.6803 17.0289 22.682 17.028 22.6828 17.0271C22.6837 17.0254 22.6854 17.0245 22.6862 17.0237C22.6871 17.0228 22.6888 17.021 22.6896 17.0202C22.6905 17.0193 22.6921 17.0176 22.693 17.0167C22.6938 17.015 22.6955 17.0141 22.6964 17.0132C22.6972 17.0115 22.6989 17.0106 22.6998 17.0097C22.7006 17.008 22.7023 17.0071 22.7032 17.0063C22.704 17.0045 22.7057 17.0037 22.7065 17.0028C22.7074 17.001 22.7091 17.0002 22.7099 16.9993C22.7108 16.9984 22.7125 16.9967 22.7133 16.9958C22.7142 16.995 22.7159 16.9932 22.7167 16.9923C22.7176 16.9906 22.7193 16.9897 22.7201 16.9889C22.7209 16.9871 22.7226 16.9863 22.7235 16.9854C22.7243 16.9845 22.726 16.9828 22.7269 16.9819C22.7277 16.9802 22.7294 16.9793 22.7303 16.9784C22.7311 16.9767 22.7328 16.9758 22.7337 16.975C22.7345 16.9732 22.7362 16.9724 22.737 16.9715C22.7379 16.9706 22.7396 16.9689 22.7404 16.968C22.7413 16.9663 22.743 16.9654 22.7438 16.9645C22.7447 16.9628 22.7464 16.9619 22.7481 16.9602C22.7489 16.9584 22.7506 16.9576 22.7514 16.9567C22.7523 16.955 22.754 16.9541 22.7557 16.9524C22.7565 16.9506 22.7582 16.9497 22.7591 16.9489C22.7599 16.9471 22.7616 16.9463 22.7625 16.9454C22.7633 16.9437 22.765 16.9428 22.7658 16.9419C22.7667 16.9402 22.7684 16.9393 22.7692 16.9384C22.7701 16.9367 22.7718 16.9358 22.7726 16.935C22.7735 16.9341 22.7752 16.9324 22.776 16.9315C22.7769 16.9306 22.7785 16.9289 22.7794 16.928C22.7802 16.9263 22.7819 16.9254 22.7828 16.9245C22.7836 16.9228 22.7853 16.9219 22.7862 16.921C22.787 16.9202 22.7887 16.9184 22.7896 16.9176C22.7904 16.9158 22.7921 16.915 22.793 16.9141C22.7938 16.9124 22.7955 16.9115 22.7963 16.9106C22.7972 16.9089 22.7989 16.908 22.7997 16.9071C22.8006 16.9063 22.8023 16.9045 22.8031 16.9037C22.804 16.9019 22.8057 16.901 22.8065 16.9002C22.8074 16.8984 22.809 16.8976 22.8107 16.8958C22.8116 16.8941 22.8133 16.8932 22.8141 16.8924C22.815 16.8906 22.8167 16.8897 22.8184 16.888C22.8192 16.8863 22.8209 16.8854 22.8218 16.8845C22.8226 16.8828 22.8243 16.8819 22.8251 16.8811C22.826 16.8793 22.8277 16.8784 22.8285 16.8776C22.8294 16.8758 22.8311 16.875 22.8319 16.8741C22.8328 16.8724 22.8345 16.8715 22.8353 16.8706C22.8362 16.8697 22.8378 16.868 22.8387 16.8671C22.8395 16.8663 22.8412 16.8645 22.8421 16.8637C22.8429 16.8619 22.8446 16.8611 22.8455 16.8602C22.8463 16.8593 22.848 16.8576 22.8489 16.8567C22.8497 16.855 22.8514 16.8541 22.8522 16.8532C22.8531 16.8515 22.8548 16.8506 22.8556 16.8497C22.8565 16.848 22.8582 16.8471 22.859 16.8463C22.8599 16.8445 22.8616 16.8437 22.8624 16.8428C22.8633 16.8419 22.865 16.8402 22.8658 16.8393C22.8666 16.8376 22.8683 16.8367 22.8692 16.8358C22.87 16.8341 22.8717 16.8332 22.8726 16.8324C22.8734 16.8315 22.8751 16.8297 22.876 16.8289C22.8768 16.8271 22.8785 16.8263 22.8794 16.8254C22.8802 16.8237 22.8819 16.8228 22.8827 16.8219C22.8836 16.8202 22.8853 16.8193 22.8861 16.8184C22.887 16.8167 22.8887 16.8158 22.8895 16.815C22.8904 16.8132 22.8921 16.8124 22.8929 16.8115C22.8938 16.8097 22.8954 16.8089 22.8971 16.8071C22.898 16.8054 22.8997 16.8045 22.9005 16.8037C22.9014 16.8019 22.9031 16.8011 22.9048 16.7993C22.9056 16.7976 22.9073 16.7967 22.9082 16.7958C22.909 16.795 22.9107 16.7932 22.9115 16.7924C22.9124 16.7906 22.9141 16.7898 22.9149 16.7889C22.9158 16.7871 22.9175 16.7863 22.9183 16.7854C22.9192 16.7837 22.9209 16.7828 22.9217 16.7819C22.9226 16.7811 22.9242 16.7793 22.9251 16.7784C22.9259 16.7776 22.9276 16.7758 22.9285 16.775C22.9293 16.7732 22.931 16.7724 22.9319 16.7715C22.9327 16.7698 22.9344 16.7689 22.9353 16.768C22.9361 16.7671 22.9378 16.7654 22.9386 16.7645C22.9395 16.7628 22.9412 16.7619 22.942 16.7611C22.9429 16.7593 22.9446 16.7584 22.9454 16.7576C22.9463 16.7558 22.948 16.755 22.9488 16.7541C22.9497 16.7524 22.9514 16.7515 22.9522 16.7506C22.953 16.7489 22.9547 16.748 22.9556 16.7471C22.9564 16.7454 22.9581 16.7445 22.9598 16.7428C22.9607 16.7411 22.9624 16.7402 22.9632 16.7393C22.9641 16.7376 22.9658 16.7367 22.9675 16.735C22.9683 16.7332 22.97 16.7324 22.9708 16.7315C22.9717 16.7306 22.9734 16.7289 22.9742 16.728C22.9751 16.7263 22.9768 16.7254 22.9776 16.7245C22.9785 16.7228 22.9802 16.7219 22.981 16.7211C22.9818 16.7193 22.9835 16.7184 22.9852 16.7167C22.9861 16.715 22.9878 16.7141 22.9886 16.7132C22.9895 16.7115 22.9912 16.7106 22.9929 16.7089C22.9937 16.7071 22.9954 16.7063 22.9963 16.7054C22.9971 16.7045 22.9988 16.7028 22.9996 16.7019C23.0005 16.7011 23.0022 16.6993 23.003 16.6984C23.0039 16.6967 23.0056 16.6958 23.0064 16.695C23.0073 16.6932 23.009 16.6924 23.0098 16.6915C23.0107 16.6898 23.0123 16.6889 23.0132 16.688C23.014 16.6863 23.0157 16.6854 23.0166 16.6845C23.0174 16.6828 23.0191 16.6819 23.02 16.6811C23.0208 16.6793 23.0225 16.6785 23.0234 16.6776C23.0242 16.6767 23.0259 16.675 23.0267 16.6741C23.0276 16.6724 23.0293 16.6715 23.0301 16.6706C23.031 16.6689 23.0327 16.668 23.0335 16.6671C23.0344 16.6663 23.0361 16.6645 23.0369 16.6637C23.0378 16.6619 23.0395 16.6611 23.0403 16.6602C23.0411 16.6585 23.0428 16.6576 23.0437 16.6567C23.0445 16.655 23.0462 16.6541 23.0479 16.6524C23.0488 16.6506 23.0505 16.6498 23.0513 16.6489C23.0522 16.6471 23.0539 16.6463 23.0555 16.6445C23.0564 16.6428 23.0581 16.6419 23.0589 16.6411C23.0598 16.6402 23.0615 16.6385 23.0623 16.6376C23.0632 16.6367 23.0649 16.635 23.0657 16.6341C23.0666 16.6324 23.0683 16.6315 23.0691 16.6306C23.0699 16.6289 23.0716 16.628 23.0725 16.6271C23.0733 16.6254 23.075 16.6245 23.0759 16.6237C23.0767 16.6228 23.0784 16.6211 23.0793 16.6202C23.0801 16.6185 23.0818 16.6176 23.0827 16.6167C23.0835 16.615 23.0852 16.6141 23.086 16.6132C23.0869 16.6124 23.0886 16.6106 23.0894 16.6098C23.0903 16.608 23.092 16.6071 23.0928 16.6063C23.0937 16.6045 23.0954 16.6037 23.0962 16.6028C23.0971 16.6011 23.0987 16.6002 23.0996 16.5993C23.1004 16.5976 23.1021 16.5967 23.103 16.5958C23.1038 16.5941 23.1055 16.5932 23.1064 16.5924C23.1072 16.5906 23.1089 16.5898 23.1106 16.588C23.1115 16.5863 23.1131 16.5854 23.114 16.5845C23.1148 16.5828 23.1165 16.5819 23.1182 16.5802C23.1191 16.5785 23.1208 16.5776 23.1216 16.5767C23.1225 16.5758 23.1242 16.5741 23.125 16.5732C23.1259 16.5724 23.1276 16.5706 23.1284 16.5698C23.1292 16.568 23.1309 16.5672 23.1318 16.5663C23.1326 16.5645 23.1343 16.5637 23.136 16.5619C23.1369 16.5602 23.1386 16.5593 23.1394 16.5585C23.1403 16.5567 23.142 16.5558 23.1436 16.5541C23.1445 16.5524 23.1462 16.5515 23.147 16.5506C23.1479 16.5498 23.1496 16.548 23.1504 16.5472C23.1513 16.5463 23.153 16.5445 23.1538 16.5437C23.1547 16.5419 23.1564 16.5411 23.1572 16.5402C23.158 16.5385 23.1597 16.5376 23.1606 16.5367C23.1614 16.535 23.1631 16.5341 23.164 16.5332C23.1648 16.5315 23.1665 16.5306 23.1674 16.5298C23.1682 16.528 23.1699 16.5272 23.1708 16.5263C23.1716 16.5245 23.1733 16.5237 23.1741 16.5228C23.175 16.5219 23.1767 16.5202 23.1775 16.5193C23.1784 16.5176 23.1801 16.5167 23.1809 16.5158C23.1818 16.5141 23.1835 16.5132 23.1843 16.5124C23.1852 16.5115 23.1868 16.5098 23.1877 16.5089C23.1885 16.5072 23.1902 16.5063 23.1911 16.5054C23.1919 16.5037 23.1936 16.5028 23.1945 16.5019C23.1953 16.5002 23.197 16.4993 23.1987 16.4976C23.1996 16.4958 23.2012 16.495 23.2021 16.4941C23.2029 16.4924 23.2046 16.4915 23.2063 16.4898C23.2072 16.488 23.2089 16.4872 23.2097 16.4863C23.2106 16.4845 23.2123 16.4837 23.2131 16.4828C23.214 16.4819 23.2156 16.4802 23.2165 16.4793C23.2173 16.4776 23.219 16.4767 23.2199 16.4759C23.2207 16.4741 23.2224 16.4732 23.2233 16.4724C23.2241 16.4706 23.2258 16.4698 23.2267 16.4689C23.2275 16.4672 23.2292 16.4663 23.23 16.4654C23.2309 16.4637 23.2326 16.4628 23.2334 16.4619C23.2343 16.4611 23.236 16.4593 23.2368 16.4585C23.2377 16.4576 23.2394 16.4559 23.2402 16.455C23.2411 16.4532 23.2428 16.4524 23.2436 16.4515C23.2444 16.4498 23.2461 16.4489 23.247 16.448C23.2478 16.4472 23.2495 16.4454 23.2504 16.4445C23.2512 16.4428 23.2529 16.4419 23.2538 16.4411C23.2546 16.4393 23.2563 16.4385 23.2572 16.4376C23.258 16.4359 23.2597 16.435 23.2614 16.4332C23.2622 16.4315 23.2639 16.4306 23.2648 16.4298C23.2656 16.428 23.2673 16.4272 23.269 16.4254C23.2699 16.4237 23.2716 16.4228 23.2724 16.4219C23.2732 16.4211 23.2749 16.4193 23.2758 16.4185C23.2766 16.4176 23.2783 16.4159 23.2792 16.415C23.28 16.4132 23.2817 16.4124 23.2826 16.4115C23.2834 16.4098 23.2851 16.4089 23.2868 16.4072C23.2876 16.4054 23.2893 16.4045 23.2902 16.4037C23.291 16.4019 23.2927 16.4011 23.2944 16.3993C23.2953 16.3976 23.297 16.3967 23.2978 16.3959C23.2987 16.395 23.3004 16.3932 23.3012 16.3924C23.302 16.3915 23.3037 16.3898 23.3046 16.3889C23.3054 16.3872 23.3071 16.3863 23.308 16.3854C23.3088 16.3837 23.3105 16.3828 23.3114 16.3819C23.3122 16.3811 23.3139 16.3793 23.3148 16.3785C23.3156 16.3767 23.3173 16.3759 23.3181 16.375C23.319 16.3732 23.3207 16.3724 23.3215 16.3715C23.3224 16.3698 23.3241 16.3689 23.3249 16.368C23.3258 16.3672 23.3275 16.3654 23.3283 16.3646C23.3292 16.3628 23.3309 16.3619 23.3317 16.3611C23.3325 16.3593 23.3342 16.3585 23.3351 16.3576C23.3359 16.3567 23.3376 16.355 23.3385 16.3541C23.3393 16.3532 23.341 16.3515 23.3419 16.3506C23.3427 16.3489 23.3444 16.348 23.3453 16.3472C23.3461 16.3454 23.3478 16.3446 23.3495 16.3428C23.3503 16.3411 23.352 16.3402 23.3529 16.3393C23.3537 16.3376 23.3554 16.3367 23.3571 16.335C23.358 16.3332 23.3597 16.3324 23.3605 16.3315C23.3613 16.3306 23.363 16.3289 23.3639 16.328C23.3647 16.3272 23.3664 16.3254 23.3673 16.3246C23.3681 16.3228 23.3698 16.3219 23.3707 16.3211C23.3715 16.3193 23.3732 16.3185 23.3741 16.3176C23.3749 16.3167 23.3766 16.315 23.3774 16.3141C23.3783 16.3124 23.38 16.3115 23.3808 16.3106C23.3817 16.3089 23.3834 16.308 23.3842 16.3072C23.3851 16.3054 23.3868 16.3046 23.3876 16.3037C23.3885 16.3028 23.3901 16.3011 23.391 16.3002C23.3918 16.2985 23.3935 16.2976 23.3944 16.2967C23.3952 16.295 23.3969 16.2941 23.3978 16.2933C23.3986 16.2924 23.4003 16.2906 23.4012 16.2898C23.402 16.2889 23.4037 16.2872 23.4045 16.2863C23.4054 16.2846 23.4071 16.2837 23.4079 16.2828C23.4088 16.2811 23.4105 16.2802 23.4122 16.2785C23.413 16.2767 23.4147 16.2759 23.4156 16.275C23.4164 16.2733 23.4181 16.2724 23.4198 16.2706C23.646 15.9863 23.779 15.6072 23.779 15.1629V13.8464C23.9323 12.5108 22.9996 11.3152 21.8493 11.0204Z" fill="white" stroke="#C4C4C4" stroke-miterlimit="10" stroke-linecap="round" stroke-linejoin="round"/>
<path d="M1.2041 4.22933V11.1377C1.2041 12.3185 2.13674 13.5141 3.28709 13.8089L20.3305 18.1713C21.4808 18.4661 22.4135 17.747 22.4135 16.5662V15.2497C22.4135 14.0689 21.4808 12.8733 20.3305 12.5785L13.8477 10.9195V5.32755L3.28709 2.62419C2.13674 2.32942 1.2041 3.04852 1.2041 4.22933Z" fill="white" stroke="#C4C4C4" stroke-miterlimit="10" stroke-linecap="round" stroke-linejoin="round"/>
<path d="M13.8486 5.32764L15.8927 5.85109C16.7042 6.05891 17.4386 6.73975 17.7647 7.5858L19.6173 12.3969L13.8486 10.9204V5.32764Z" fill="white" stroke="#C4C4C4" stroke-miterlimit="10" stroke-linecap="round" stroke-linejoin="round"/>
<path d="M7.76276 16.5782C8.63632 15.7864 8.5427 14.2124 7.55365 13.0626C6.5646 11.9129 5.05465 11.6227 4.18109 12.4145C3.30753 13.2063 3.40115 14.7802 4.3902 15.93C5.37925 17.0798 6.88919 17.37 7.76276 16.5782Z" fill="white" stroke="#C4C4C4" stroke-miterlimit="10"/>
<path d="M19.4366 19.5664C20.3102 18.7746 20.2165 17.2007 19.2275 16.0509C18.2384 14.9012 16.7285 14.611 15.8549 15.4028C14.9814 16.1945 15.075 17.7685 16.064 18.9183C17.0531 20.068 18.563 20.3582 19.4366 19.5664Z" fill="white" stroke="#C4C4C4" stroke-miterlimit="10"/>
<path d="M3.79272 7.23695C3.79272 6.11091 4.53816 5.5318 5.58347 5.79962C6.35432 5.997 6.95067 6.56828 7.18023 7.37607L6.54237 7.45346C6.38396 6.94652 6.04174 6.57089 5.58347 6.4535C4.96594 6.29525 4.52207 6.64828 4.52207 7.42303C4.52207 8.19777 4.96594 8.77775 5.58347 8.936C6.04259 9.05339 6.38481 8.8534 6.54237 8.42733L7.18023 8.83166C6.95067 9.52206 6.35347 9.78814 5.58347 9.59076C4.53816 9.32381 3.79272 8.36298 3.79272 7.23695Z" fill="#C4C4C4"/>
<path d="M11.035 7.25748V10.9234L10.3362 10.7443V8.22004L9.35608 9.34695L9.23834 9.31652L8.24894 7.68615V10.2104L7.55518 10.033V6.36621L8.21336 6.5349L9.30526 8.35395L10.3768 7.08792L11.035 7.25748Z" fill="#C4C4C4"/>
</svg>
